<svg xmlns="http://www.w3.org/2000/svg" xmlns:xlink="http://www.w3.org/1999/xlink" enable-background="new 0 0 52 52" version="1.1" xml:space="preserve" width="52" height="52" style=""><rect id="backgroundrect" width="100%" height="100%" x="0" y="0" fill="none" stroke="none"/><g class="currentLayer" style=""><title>Layer 1</title><g id="svg_1" class="selected" fill="#ffffff" fill-opacity="1"><g id="svg_2" fill="#ffffff" fill-opacity="1"><g id="svg_3" fill="#ffffff" fill-opacity="1"><g id="svg_4" fill="#ffffff" fill-opacity="1"><polygon points="50,50.2070313 2,50.2070313 2,20.2070313 21.2226563,20.2070313 21.2226563,22.2070313 4,22.2070313       4,48.2070313 48,48.2070313 48,22.2070313 37.2597656,22.2070313 37.2597656,20.2070313 50,20.2070313     " id="svg_5" fill="#ffffff" fill-opacity="1"/></g></g><g id="svg_6" fill="#ffffff" fill-opacity="1"><g id="svg_7" fill="#ffffff" fill-opacity="1"><rect height="28" width="2" x="42" y="21.20703125" id="svg_8" fill="#ffffff" fill-opacity="1"/></g></g><g id="svg_9" fill="#ffffff" fill-opacity="1"><g id="svg_10" fill="#ffffff" fill-opacity="1"><rect height="28" width="2" x="8" y="21.20703125" id="svg_11" fill="#ffffff" fill-opacity="1"/></g></g><g id="svg_12" fill="#ffffff" fill-opacity="1"><g id="svg_13" fill="#ffffff" fill-opacity="1"><rect height="10" width="2" x="45" y="30.20703125" id="svg_14" fill="#ffffff" fill-opacity="1"/></g></g><g id="svg_15" fill="#ffffff" fill-opacity="1"><g id="svg_16" fill="#ffffff" fill-opacity="1"><rect height="4" width="2" x="5" y="25.20703125" id="svg_17" fill="#ffffff" fill-opacity="1"/></g></g><g id="svg_18" fill="#ffffff" fill-opacity="1"><g id="svg_19" fill="#ffffff" fill-opacity="1"><rect height="4" width="2" x="5" y="41.20703125" id="svg_20" fill="#ffffff" fill-opacity="1"/></g></g></g><g id="svg_21" fill="#ffffff" fill-opacity="1"><g id="svg_22" fill="#ffffff" fill-opacity="1"><g id="svg_23" fill="#ffffff" fill-opacity="1"><path d="M14.6767578,35.4584961l4.1035156-12.824707L40.3613281,1.7929688l8.8574219,9.171875l-21.5810547,20.840332      L14.6767578,35.4584961z M20.5322266,23.7226563l-2.8164063,8.8012695l8.8945313-2.5068359L46.390625,10.9150391      L40.3125,4.6210938L20.5322266,23.7226563z" id="svg_24" fill="#ffffff" fill-opacity="1"/></g></g><g id="svg_25" fill="#ffffff" fill-opacity="1"><g id="svg_26" fill="#ffffff" fill-opacity="1"><rect height="10.749463081359863" transform="matrix(0.7193764,-0.6946204,0.6946204,0.7193764,4.016099,31.0664368) " width="2.000786781311035" x="39.45663833618164" y="5.188012599945068" id="svg_27" fill="#ffffff" fill-opacity="1"/></g></g></g></g></g></svg>