<svg xmlns="http://www.w3.org/2000/svg" viewBox="0 0 34 40"><title>Asset 26</title><g id="Layer_2" data-name="Layer 2"><g id="Layer_1-2" data-name="Layer 1"><path d="M34,21H26.13l-1.87-4.74a2.66,2.66,0,0,0-.39-.66A8.77,8.77,0,0,0,26,9.88,8.94,8.94,0,0,0,19,1.2a2.19,2.19,0,0,0-3.91,0A8.94,8.94,0,0,0,8,9.88a8.77,8.77,0,0,0,2.34,6s-.06.09-.08.13L8,21H0v2.61H6.8L1.18,36.2a2.65,2.65,0,0,0,0,2.07,2.71,2.71,0,0,0,1.45,1.5,2.77,2.77,0,0,0,3.62-1.38l6.61-14.73h8.44l5.6,14.23a2.71,2.71,0,0,0,1.45,1.5,2.77,2.77,0,0,0,2.1,0A2.71,2.71,0,0,0,31.93,38,2.65,2.65,0,0,0,32,35.93L27.15,23.65H34ZM19.22,18.49l1,2.56H14l1.11-2.49a8.92,8.92,0,0,0,4.13-.07ZM17,5.74a4.13,4.13,0,1,1-4.2,4.13A4.17,4.17,0,0,1,17,5.74Z"/></g></g></svg>