<svg xmlns="http://www.w3.org/2000/svg" viewBox="0 0 40 40"><title>Asset 29</title><g id="Layer_2" data-name="Layer 2"><g id="Layer_1-2" data-name="Layer 1"><rect y="3.81" width="6" height="3.27"/><rect x="18" y="3.81" width="22" height="3.27"/><path d="M15,0H9A2.1,2.1,0,0,0,7,2.18V8.71a2.1,2.1,0,0,0,2,2.18h6a2.1,2.1,0,0,0,2-2.18V2.18A2.1,2.1,0,0,0,15,0Z"/><rect x="34" y="17.96" width="6" height="3.27"/><rect y="17.96" width="22" height="3.27"/><path d="M25,14.15h6a2.1,2.1,0,0,1,2,2.18v6.53A2.1,2.1,0,0,1,31,25H25a2.1,2.1,0,0,1-2-2.18V16.33A2.1,2.1,0,0,1,25,14.15Z"/><rect y="33.2" width="9" height="3.27"/><rect x="21" y="33.2" width="19" height="3.27"/><path d="M18,29.12H12a2.1,2.1,0,0,0-2,2.18v6.53A2.1,2.1,0,0,0,12,40h6a2.1,2.1,0,0,0,2-2.18V31.29A2.1,2.1,0,0,0,18,29.12Z"/></g></g></svg>