<svg xmlns="http://www.w3.org/2000/svg" viewBox="0 0 39.14 42"><title>Asset 17</title><g id="Layer_2" data-name="Layer 2"><g id="Layer_1-2" data-name="Layer 1"><path d="M19.57,12a6,6,0,1,1,6-6A6,6,0,0,1,19.57,12Zm0-10a4,4,0,1,0,4,4A4,4,0,0,0,19.57,2Z"/><path d="M6,12a6,6,0,1,1,6-6A6,6,0,0,1,6,12ZM6,2a4,4,0,1,0,4,4A4,4,0,0,0,6,2Z"/><path d="M33.14,12a6,6,0,1,1,6-6A6,6,0,0,1,33.14,12Zm0-10a4,4,0,1,0,4,4A4,4,0,0,0,33.14,2Z"/><path d="M19.57,27a6,6,0,1,1,6-6A6,6,0,0,1,19.57,27Zm0-10a4,4,0,1,0,4,4A4,4,0,0,0,19.57,17Z"/><path d="M6,27a6,6,0,1,1,6-6A6,6,0,0,1,6,27ZM6,17a4,4,0,1,0,4,4A4,4,0,0,0,6,17Z"/><path d="M33.14,27a6,6,0,1,1,6-6A6,6,0,0,1,33.14,27Zm0-10a4,4,0,1,0,4,4A4,4,0,0,0,33.14,17Z"/><path d="M19.57,42a6,6,0,1,1,6-6A6,6,0,0,1,19.57,42Zm0-10a4,4,0,1,0,4,4A4,4,0,0,0,19.57,32Z"/><path d="M6,42a6,6,0,1,1,6-6A6,6,0,0,1,6,42ZM6,32a4,4,0,1,0,4,4A4,4,0,0,0,6,32Z"/><path d="M33.14,42a6,6,0,1,1,6-6A6,6,0,0,1,33.14,42Zm0-10a4,4,0,1,0,4,4A4,4,0,0,0,33.14,32Z"/></g></g></svg>