<?xml version="1.0" encoding="utf-8"?>
<!-- Generator: Adobe Illustrator 26.4.1, SVG Export Plug-In . SVG Version: 6.00 Build 0)  -->
<svg version="1.1" id="Layer_1" xmlns="http://www.w3.org/2000/svg" xmlns:xlink="http://www.w3.org/1999/xlink" x="0px" y="0px"
	 viewBox="0 0 40 40" style="enable-background:new 0 0 40 40;" xml:space="preserve">
<style type="text/css">
	.st0{fill:#00AA7E;}
</style>
<g id="Layer_2_00000108994128180866564760000002436847381749862821_">
	<g id="Layer_1-2">
		<polygon class="st0" points="40,37 3,37 3,0 0,0 0,37 0,40 0,40 3,40 3,40 40,40 		"/>
		<path class="st0" d="M22.6,31.5h-0.1c-0.5,0-0.9-0.3-1.2-0.8l-7.2-13.1L8.4,29.4c-0.4,0.7-1.3,1.1-2,0.7c-0.7-0.4-1.1-1.3-0.7-2
			l7-14.4c0.4-0.7,1.3-1,2-0.7c0.3,0.1,0.5,0.4,0.7,0.6l7.5,13.7l5-6.1c0.5-0.7,1.4-0.8,2.1-0.3s0.8,1.4,0.3,2.1c0,0,0,0-0.1,0.1
			L23.7,31C23.4,31.3,23,31.5,22.6,31.5z"/>
	</g>
</g>
</svg>
