<?xml version="1.0" encoding="utf-8"?>
<!-- Generator: Adobe Illustrator 26.4.1, SVG Export Plug-In . SVG Version: 6.00 Build 0)  -->
<svg version="1.1" id="Layer_1" xmlns="http://www.w3.org/2000/svg" xmlns:xlink="http://www.w3.org/1999/xlink" x="0px" y="0px"
	 viewBox="0 0 41 41" style="enable-background:new 0 0 41 41;" xml:space="preserve">
<style type="text/css">
	.st0{fill:#00AA7E;}
</style>
<g id="Layer_2_00000034795428461627521090000007609600652563204246_">
	<g id="Layer_1-2">
		<path class="st0" d="M16.5,41h-13C1.6,41,0,39.4,0,37.5v-12C0,23.6,1.6,22,3.5,22h13c1.9,0,3.5,1.6,3.5,3.5v12
			C20,39.4,18.4,41,16.5,41z M3.5,23C2.1,23,1,24.1,1,25.5v12C1,38.9,2.1,40,3.5,40h13c1.4,0,2.5-1.1,2.5-2.5v-12
			c0-1.4-1.1-2.5-2.5-2.5H3.5z"/>
		<path class="st0" d="M37.5,41h-13c-1.9,0-3.5-1.6-3.5-3.5v-12c0-1.9,1.6-3.5,3.5-3.5h13c1.9,0,3.5,1.6,3.5,3.5v12
			C41,39.4,39.4,41,37.5,41z M24.5,23c-1.4,0-2.5,1.1-2.5,2.5v12c0,1.4,1.1,2.5,2.5,2.5h13c1.4,0,2.5-1.1,2.5-2.5v-12
			c0-1.4-1.1-2.5-2.5-2.5H24.5z"/>
		<path class="st0" d="M37.5,19h-13c-1.9,0-3.5-1.6-3.5-3.5v-12C21,1.6,22.6,0,24.5,0h13C39.4,0,41,1.6,41,3.5l0,0v12
			C41,17.4,39.4,19,37.5,19z M24.5,1C23.1,1,22,2.1,22,3.5v12c0,1.4,1.1,2.5,2.5,2.5h13c1.4,0,2.5-1.1,2.5-2.5v-12
			C40,2.1,38.9,1,37.5,1H24.5z"/>
		<path class="st0" d="M3.5,0.5h13c1.7,0,3,1.3,3,3v12c0,1.7-1.3,3-3,3h-13c-1.7,0-3-1.3-3-3v-12C0.5,1.8,1.8,0.5,3.5,0.5z"/>
	</g>
</g>
</svg>
