<svg xmlns="http://www.w3.org/2000/svg" viewBox="0 0 41 41">
<title>Asset 8</title><g id="Layer_2" data-name="Layer 2">
<g id="Layer_1-2" data-name="Layer 1">
<style type="text/css">
	.st0{fill:none;}
	.st1{fill:#68a4eb}
	.st2{fill:#ffffff}
</style>
<path class="st2" d="M16.5,41H3.5A3.5,3.5,0,0,1,0,37.5v-12A3.5,3.5,0,0,1,3.5,22h13A3.5,3.5,0,0,1,20,25.5v12A3.5,3.5,0,0,1,16.5,41ZM3.5,23A2.5,2.5,0,0,0,1,25.5v12A2.5,2.5,0,0,0,3.5,40h13A2.5,2.5,0,0,0,19,37.5v-12A2.5,2.5,0,0,0,16.5,23Z"/>
<path class="st2" d="M37.5,41h-13A3.5,3.5,0,0,1,21,37.5v-12A3.5,3.5,0,0,1,24.5,22h13A3.5,3.5,0,0,1,41,25.5v12A3.5,3.5,0,0,1,37.5,41Zm-13-18A2.5,2.5,0,0,0,22,25.5v12A2.5,2.5,0,0,0,24.5,40h13A2.5,2.5,0,0,0,40,37.5v-12A2.5,2.5,0,0,0,37.5,23Z"/>
<path class="st2"  d="M37.5,19h-13A3.5,3.5,0,0,1,21,15.5V3.5A3.5,3.5,0,0,1,24.5,0h13A3.5,3.5,0,0,1,41,3.5v12A3.5,3.5,0,0,1,37.5,19ZM24.5,1A2.5,2.5,0,0,0,22,3.5v12A2.5,2.5,0,0,0,24.5,18h13A2.5,2.5,0,0,0,40,15.5V3.5A2.5,2.5,0,0,0,37.5,1Z"/>
<rect class="st2" x="0.5" y="0.5" width="19" height="18" rx="3" ry="3"/></g></g></svg>