<svg xmlns="http://www.w3.org/2000/svg" viewBox="0 0 41.29 33"><title>Asset 21</title><g id="Layer_2" data-name="Layer 2"><g id="Layer_1-2" data-name="Layer 1"><polygon fill="#868e96" points="1.34 32.99 0 30.31 11.29 24.67 20.64 28.68 33.32 22.67 41.29 26.29 40.05 29.02 33.35 25.97 20.7 31.97 11.39 27.97 1.34 32.99"/><polygon fill="#868e96" points="1.34 21.66 0 18.98 11.29 13.33 20.64 17.34 33.32 11.33 41.29 14.96 40.05 17.69 33.35 14.64 20.7 20.63 11.39 16.64 1.34 21.66"/><polygon fill="#868e96" points="1.34 10.33 0 7.64 11.29 2 20.64 6.01 33.32 0 41.29 3.62 40.05 6.35 33.35 3.31 20.7 9.3 11.39 5.31 1.34 10.33"/></g></g></svg>