<svg xmlns="http://www.w3.org/2000/svg" xmlns:xlink="http://www.w3.org/1999/xlink" version="1.1" style="enable-background:new 0 0 31 47.5;" xml:space="preserve" width="31" height="47.5"><rect id="backgroundrect" width="100%" height="100%" x="0" y="0" fill="none" stroke="none"/>
<title>Asset 1</title>



<g class="currentLayer" style=""><title>Layer 1</title><g id="Layer_2" class="selected" fill="#6d6d6d" fill-opacity="1">
	<g id="Layer_1-2" fill="#6d6d6d" fill-opacity="1">
		<g id="svg_1" fill="#6d6d6d" fill-opacity="1">
			<path d="M15.5,36.4C7,36.4,0,29.4,0,20.9S7,5.4,15.5,5.4S31,12.3,31,20.9S24.1,36.4,15.5,36.4z M15.5,7.4C8.1,7.4,2,13.4,2,20.9     s6.1,13.5,13.5,13.5C23,34.4,29,28.3,29,20.9S23,7.4,15.5,7.4z" id="svg_2" fill="#6d6d6d" fill-opacity="1"/>
		</g>
	</g>
</g><polygon points="17.5,26.899999618530273 17.5,20.899999618530273 17.5,18 13.5,18 11.699999809265137,18 11.699999809265137,20.899999618530273 13.5,20.899999618530273 13.5,26.899999618530273 11.699999809265137,26.899999618530273 11.699999809265137,29.799999237060547 19.299999237060547,29.799999237060547 19.299999237060547,26.899999618530273 " id="svg_3" class="" fill="#6d6d6d" fill-opacity="1"/><circle cx="15.5" cy="14.300000190734863" r="2.299999952316284" id="svg_4" class="" fill="#6d6d6d" fill-opacity="1"/></g></svg>