<?xml version="1.0" encoding="utf-8"?>
<!-- Generator: Adobe Illustrator 21.0.2, SVG Export Plug-In . SVG Version: 6.00 Build 0)  -->
<svg version="1.1" id="Layer_1" xmlns="http://www.w3.org/2000/svg" xmlns:xlink="http://www.w3.org/1999/xlink" x="0px" y="0px"
	 viewBox="0 0 31 47.5" style="enable-background:new 0 0 31 47.5;" xml:space="preserve">
<title>Asset 1</title>
<g id="Layer_2">
	<g id="Layer_1-2">
		<g>
			<path d="M15.5,36.4C7,36.4,0,29.4,0,20.9S7,5.4,15.5,5.4S31,12.3,31,20.9S24.1,36.4,15.5,36.4z M15.5,7.4C8.1,7.4,2,13.4,2,20.9
				s6.1,13.5,13.5,13.5C23,34.4,29,28.3,29,20.9S23,7.4,15.5,7.4z"/>
		</g>
	</g>
</g>
<polygon points="17.5,26.9 17.5,20.9 17.5,18 13.5,18 11.7,18 11.7,20.9 13.5,20.9 13.5,26.9 11.7,26.9 11.7,29.8 19.3,29.8 
	19.3,26.9 "/>
<circle cx="15.5" cy="14.3" r="2.3"/>
</svg>
