<svg xmlns="http://www.w3.org/2000/svg" fill="#000000" height="24" width="24" style=""><rect id="backgroundrect" width="100%" height="100%" x="0" y="0" fill="none" stroke="none"/>
    
    
<g class="currentLayer" style=""><title>Layer 1</title><path d="M0,0 h24 v24 H0 z" fill="none" id="svg_1" class=""/><path d="M18,8 h-1 V6 c0,-2.7600000000000002 -2.24,-5 -5,-5 S7,3.24 7,6 v2 H6 c-1.1,0 -2,0.9 -2,2 v10 c0,1.1 0.9,2 2,2 h12 c1.1,0 2,-0.9 2,-2 V10 c0,-1.1 -0.9,-2 -2,-2 zm-6,9 c-1.1,0 -2,-0.9 -2,-2 s0.9,-2 2,-2 s2,0.9 2,2 s-0.9,2 -2,2 zm3.1,-9 H8.9 V6 c0,-1.71 1.3900000000000001,-3.1 3.1,-3.1 c1.71,0 3.1,1.3900000000000001 3.1,3.1 v2 z" id="svg_2" class="selected" fill="#6d6d6d" fill-opacity="1"/></g></svg>