<?xml version="1.0" encoding="utf-8"?>
<!-- Generator: Adobe Illustrator 26.4.1, SVG Export Plug-In . SVG Version: 6.00 Build 0)  -->
<svg version="1.1" id="Layer_1" xmlns="http://www.w3.org/2000/svg" xmlns:xlink="http://www.w3.org/1999/xlink" x="0px" y="0px"
	 viewBox="0 0 42 42" style="enable-background:new 0 0 42 42;" xml:space="preserve">
<style type="text/css">
	.st0{fill:#00AA7E;}
</style>
<g id="Layer_2_00000162348436140276249210000001267579868874418872_">
	<g id="Layer_1-2">
		<circle class="st0" cx="21" cy="21" r="6.7"/>
		<path class="st0" d="M21,35.3c-7.9,0-14.3-6.4-14.3-14.3c0-7.9,6.4-14.3,14.3-14.3c7.9,0,14.3,6.4,14.3,14.3
			C35.3,28.9,28.9,35.3,21,35.3z M21,8.7C14.2,8.7,8.7,14.2,8.7,21S14.2,33.3,21,33.3S33.3,27.8,33.3,21C33.3,14.2,27.8,8.7,21,8.7z
			"/>
		<path class="st0" d="M21,42C9.4,42,0,32.6,0,21S9.4,0,21,0s21,9.4,21,21S32.6,42,21,42z M21,2C10.5,2,2,10.5,2,21s8.5,19,19,19
			s19-8.5,19-19S31.5,2,21,2z"/>
	</g>
</g>
</svg>
