<?xml version="1.0" encoding="utf-8"?>
<!-- Generator: Adobe Illustrator 26.4.1, SVG Export Plug-In . SVG Version: 6.00 Build 0)  -->
<svg version="1.1" id="Layer_1" xmlns="http://www.w3.org/2000/svg" xmlns:xlink="http://www.w3.org/1999/xlink" x="0px" y="0px"
	 viewBox="0 0 40 40" style="enable-background:new 0 0 40 40;" xml:space="preserve">
<style type="text/css">
	.st0{fill:#00AA7E;}
</style>
<g id="Layer_2_00000108306334077707188450000004279633530183620999_">
	<g id="Layer_1-2">
		<path class="st0" d="M22.9,38v-2.4c2.2-0.5,4.2-1.4,6-2.7l1.9,1.9c0.8,0.8,2,0.8,2.8,0c0,0,0,0,0,0l1.2-1.2c0.8-0.8,0.8-2,0-2.8
			c0,0,0,0,0,0l-2-2c1.1-1.8,1.9-3.7,2.2-5.8h3c1.1,0,2-0.9,2-2v-1.7c0-1.1-0.9-2-2-2h-3.3c-0.4-2-1.2-3.8-2.4-5.5l2.4-2.4
			c0.8-0.8,0.8-2,0-2.8c0,0,0,0,0,0l-1.2-1.2c-0.8-0.8-2-0.8-2.8,0c0,0,0,0,0,0l-2.4,2.3c-1.7-1.1-3.5-1.9-5.5-2.4V2
			c0-1.1-0.9-2-2-2h-1.7c-1.1,0-2,0.9-2,2v3.1c-2.1,0.3-4,1.1-5.8,2.2l-2-2c-0.8-0.8-2-0.8-2.8,0c0,0,0,0,0,0L5.3,6.5
			c-0.8,0.8-0.8,2,0,2.8c0,0,0,0,0,0l1.9,1.9C5.9,13,5,15,4.5,17.2H2c-1.1,0-2,0.9-2,2v1.7c0,1.1,0.9,2,2,2h2.3
			c0.4,2.3,1.2,4.4,2.5,6.3l-1.5,1.5c-0.8,0.8-0.8,2,0,2.8c0,0,0,0,0,0l1.2,1.2c0.8,0.8,2,0.8,2.8,0c0,0,0,0,0,0l1.5-1.5
			c1.9,1.3,4,2.1,6.3,2.5V38c0,1.1,0.9,2,2,2h1.7C22,40,22.9,39.1,22.9,38C22.9,38,22.9,38,22.9,38z M27,20.4c0,4.1-3.3,7.4-7.4,7.4
			s-7.4-3.3-7.4-7.4c0-4.1,3.3-7.4,7.4-7.4C23.7,13,27,16.3,27,20.4C27,20.4,27,20.4,27,20.4z"/>
	</g>
</g>
</svg>
