<?xml version="1.0" encoding="utf-8"?>
<!-- Generator: Adobe Illustrator 21.1.0, SVG Export Plug-In . SVG Version: 6.00 Build 0)  -->
<svg version="1.1" id="Layer_1" xmlns="http://www.w3.org/2000/svg" xmlns:xlink="http://www.w3.org/1999/xlink" x="0px" y="0px"
	 viewBox="0 0 58.8 58.8" style="enable-background:new 0 0 58.8 58.8;" xml:space="preserve">
<title>Asset 15</title>
<g>
	<path d="M53.4,14.4L47.1,11l-0.2-7.2l4.9-3c-5.6-2.3-12,0.5-14.3,6.1s0.5,12,6.1,14.3s12-0.5,14.3-6.1c0.5-1.2,0.8-2.6,0.8-3.9
		L53.4,14.4z"/>
	<path d="M15.1,37.6c-5.6-2.3-12,0.5-14.3,6.1C0.3,44.9,0,46.2,0,47.6l5.3-3.3l6.3,3.4l0.2,7.2l-4.9,3c5.6,2.3,12-0.5,14.3-6.1
		S20.7,39.8,15.1,37.6z"/>
	<path d="M40.8,22l-4-4c-0.2-0.2-0.4-0.3-0.6-0.5c-0.3-0.5-0.5-1-0.7-1.5c-0.8,0-1.6,0.3-2.2,0.9l-1,1L16.9,33.3
		c-0.6,0.6-0.9,1.4-0.9,2.3c0.5,0.2,1,0.4,1.5,0.6c0.1,0.2,0.3,0.4,0.5,0.6l4,4c0.2,0.2,0.4,0.3,0.6,0.5c0.2,0.5,0.5,1,0.6,1.4
		c0.8,0,1.6-0.3,2.2-0.9l1-1l15.4-15.3c0.6-0.6,0.9-1.4,0.9-2.3c-0.5-0.2-1-0.4-1.5-0.6C41.2,22.4,41,22.2,40.8,22z"/>
</g>
</svg>
