<?xml version="1.0" encoding="utf-8"?>
<!-- Generator: Adobe Illustrator 26.4.1, SVG Export Plug-In . SVG Version: 6.00 Build 0)  -->
<svg version="1.1" id="svg" xmlns="http://www.w3.org/2000/svg" xmlns:xlink="http://www.w3.org/1999/xlink" x="0px" y="0px"
	 viewBox="0 0 400 400" style="enable-background:new 0 0 400 400;" xml:space="preserve">
<style type="text/css">
	.st0{fill-rule:evenodd;clip-rule:evenodd;fill:#FFFFFF;}
	.st1{fill-rule:evenodd;clip-rule:evenodd;fill:#00AA7E;}
	.st2{fill-rule:evenodd;clip-rule:evenodd;fill:#94D4FC;}
	.st3{fill-rule:evenodd;clip-rule:evenodd;fill:#BBE3FD;}
	.st4{fill-rule:evenodd;clip-rule:evenodd;fill:#DDF1FE;}
</style>
<g id="svgg">
	<path id="path0" class="st0" d="M0,200v200h29.6c17.1,0,29.6-0.2,29.6-0.4c0-0.5-1.1-0.8-3-0.8c-1.1,0-2.1-0.3-2.7-0.8
		c-0.6-0.4-1.4-0.8-1.8-0.8c-1.1,0-3.3-0.8-3.3-1.2c0-0.2-0.8-0.5-1.8-0.8c-1-0.3-1.9-0.7-2-1c-0.1-0.3-0.6-0.6-1.1-0.6
		c-0.5,0-1.2-0.3-1.5-0.7c-0.3-0.4-1.1-0.9-1.9-1.2c-0.7-0.3-1.4-0.8-1.5-1.1s-0.4-0.6-0.7-0.6c-0.5,0-3.5-2.1-4.7-3.3
		c-0.4-0.4-0.9-0.7-1.1-0.7c-0.2,0-0.4-0.3-0.4-0.6c0-0.4-0.4-0.7-0.8-0.8c-0.4-0.1-0.9-0.5-1-1c-0.1-0.4-0.5-0.8-0.8-0.8
		c-0.3,0-0.8-0.4-1-1c-0.2-0.5-0.7-1-1-1c-0.3,0-0.6-0.3-0.6-0.6c0-0.3-0.4-0.9-1-1.2c-0.5-0.4-1-0.8-1-1.1c0-0.2-0.4-0.9-1-1.6
		c-0.5-0.7-1-1.4-1-1.7c0-0.3-0.4-0.7-0.8-1s-0.8-0.7-0.8-0.9c0-0.2-0.4-0.9-0.8-1.5c-0.4-0.6-0.8-1.3-0.8-1.6c0-0.3-0.5-1.1-1-1.8
		c-0.6-0.7-1-1.7-1-2.3c0-0.6-0.3-1.3-0.7-1.5c-0.5-0.3-0.8-1.2-1-2.4c-0.1-1-0.6-2.2-0.9-2.6c-0.4-0.5-0.7-1.7-0.8-3.2
		c-0.1-1.5-0.4-2.8-0.8-3.2c-1.2-1.3-1.3-11.3-1.2-93.7c0.1-82.4,0.2-84.6,1.5-84.6c0.2,0,0.4-1.3,0.5-3c0.1-2.1,0.4-3.2,0.9-3.7
		c0.4-0.4,0.8-1.7,1-2.9c0.1-1.2,0.6-2.4,1-2.9c0.4-0.4,0.7-1.3,0.7-1.9c0-0.7,0.4-1.6,0.8-2c0.4-0.4,0.9-1.3,1.1-1.9
		c0.1-0.6,0.5-1.4,0.8-1.7c0.3-0.3,0.8-1.3,1.1-2.1c0.3-0.8,0.8-1.5,1-1.5c0.2,0,0.4-0.3,0.4-0.6c0-0.3,0.5-1.1,1-1.7
		c0.6-0.6,1-1.3,1-1.5c0-0.5,0-0.5,5-5.6c1.9-1.9,3.6-3.5,3.8-3.5c0.2,0,0.4-0.2,0.4-0.5s0.6-0.8,1.4-1.3c0.8-0.4,1.4-0.9,1.4-1.1
		s0.5-0.4,1.2-0.6c0.7-0.1,1.2-0.6,1.4-1c0.1-0.4,0.5-0.8,1-0.8c0.4,0,1.4-0.4,2.1-1s1.6-1,1.9-1c0.3,0,1-0.4,1.6-0.8
		c0.6-0.4,1.4-0.8,1.9-0.8c0.5,0,1.3-0.3,1.8-0.7c0.5-0.4,1.8-0.9,2.9-1c1-0.1,2.4-0.6,3-0.9c0.7-0.5,2.1-0.7,4.6-0.9
		c2-0.1,3.5-0.3,3.5-0.5c0-1.4,65.9-1.7,67.5-0.3c0.4,0.4,1.4,0.7,2.2,0.7c0.9,0,1.8,0.3,2.3,0.8c0.4,0.4,1.4,0.9,2,1.1
		c0.7,0.1,1.4,0.6,1.7,1c0.3,0.4,0.7,0.7,0.9,0.7c0.2,0,1.1,0.8,2,1.8c0.9,1,1.8,1.8,2,1.8s0.6,0.4,0.7,0.8c0.1,0.4,0.6,1,1,1.2
		c0.4,0.2,0.8,0.7,0.8,1.1s0.4,1.1,0.8,1.5c0.4,0.5,0.9,1.6,1.1,2.4c0.1,0.9,0.5,1.8,0.9,2c1,0.7,0.9,16.9-0.1,18
		c-0.4,0.4-0.7,1.1-0.7,1.6c0,0.5-0.4,1.4-1,2c-0.5,0.7-1,1.4-1,1.7c0,1.3-5.2,6.7-7.5,7.7c-0.6,0.3-1.3,0.8-1.6,1.2
		c-0.3,0.4-1,0.7-1.9,0.7c-0.9,0-1.5,0.3-1.9,0.8c-0.4,0.7-1.1,0.9-3.5,1.1c-1.8,0.2-3.5,0.5-4.2,1c-0.7,0.4-1.9,0.7-2.7,0.7
		c-0.9,0-2,0.3-2.6,0.8c-0.6,0.4-1.8,0.9-2.6,1.1c-0.9,0.1-1.9,0.6-2.3,1c-0.4,0.4-1.1,0.7-1.6,0.7c-0.5,0-1.1,0.4-1.4,0.8
		c-0.3,0.4-0.7,0.8-1,0.8c-0.3,0-1,0.4-1.6,1c-0.6,0.5-1.3,1-1.7,1c-0.3,0-0.8,0.4-1,0.8c-0.2,0.4-0.7,0.8-1,0.8
		c-0.3,0-0.7,0.3-0.8,0.8c-0.1,0.4-0.6,0.8-1,1c-0.4,0.1-0.8,0.5-0.8,0.8c0,0.3-0.4,0.7-0.8,0.9c-0.4,0.1-0.9,0.6-1,1
		c-0.1,0.4-0.5,0.8-0.8,0.8s-0.7,0.4-0.8,0.8c-0.1,0.4-0.6,1-1,1.2c-0.4,0.2-0.8,0.7-0.8,1.2c0,0.4-0.3,0.8-0.6,1
		c-0.3,0.1-0.9,0.9-1.2,1.6c-0.3,0.8-0.8,1.4-1,1.4s-0.5,0.5-0.7,1.2c-0.1,0.7-0.6,1.5-1,1.9c-0.4,0.4-0.8,1.4-0.9,2.2
		c-0.1,0.9-0.5,1.9-0.9,2.3c-0.4,0.4-0.8,1.6-0.9,2.7c-0.1,1.1-0.5,2.4-1,3c-1.1,1.6-1.1,20.6,0,22.3c0.4,0.6,0.9,2.1,1,3.5
		c0.1,1.3,0.4,2.5,0.6,2.6c0.6,0.4,1.2,2,1.2,3c0,0.6,0.4,1.4,0.8,1.9s0.8,1.2,0.8,1.5c0,0.4,0.4,1.3,1,2c0.5,0.7,1,1.6,1,1.8
		s0.4,0.8,0.8,1.2c0.4,0.4,0.8,1,0.8,1.3s0.4,1,0.9,1.5c0.5,0.5,1.6,1.8,2.5,2.8c2,2.4,2.6,3,3,3c0.2,0,0.4,0.4,0.5,0.8
		c0.1,0.4,0.5,0.8,0.8,0.8c0.3,0,0.7,0.4,0.9,0.8c0.1,0.4,0.6,0.9,1,1c0.4,0.1,0.8,0.4,0.8,0.6c0,0.2,6,6.4,13.3,13.8
		c7.3,7.4,17.3,17.6,22.3,22.7c5,5.1,10.7,10.9,12.7,13c2,2,3.7,3.9,3.7,4.1c0,0.2,0.2,0.4,0.4,0.4c0.6,0,3.2,2.6,3.2,3.1
		c0,0.3,0.2,0.5,0.5,0.5c0.3,0,1.1,0.7,1.9,1.5s2.1,1.9,2.9,2.4c0.8,0.5,1.5,1.1,1.5,1.3c0,0.2,0.4,0.4,0.8,0.4c0.5,0,0.9,0.3,1,0.8
		c0.1,0.5,0.5,0.8,1.1,0.8c0.5,0,1.4,0.5,2,1c0.6,0.5,1.5,1,2,1c0.5,0,1.2,0.4,1.4,0.8c0.4,0.6,0.9,0.8,1.9,0.8
		c0.9,0,1.9,0.3,2.5,0.8c0.7,0.5,1.9,0.9,3.4,1c1.3,0.1,3.3,0.6,4.6,1c1.8,0.6,3.5,0.8,7.9,0.8s6.1-0.2,7.9-0.8
		c1.3-0.4,3.3-0.9,4.6-1c1.5-0.1,2.5-0.5,2.8-0.9c0.3-0.4,1.3-0.8,2.3-0.9c1-0.1,1.9-0.5,2.1-0.8c0.2-0.3,1-0.7,1.9-1
		c0.9-0.2,2-0.8,2.4-1.2c0.4-0.4,1-0.8,1.3-0.8c0.3,0,0.9-0.4,1.3-0.8c0.4-0.4,1-0.8,1.4-0.8c0.4,0,0.8-0.4,1-0.8s0.6-0.8,0.9-0.8
		c0.8,0,69.9-69.1,70.3-70.3c0.1-0.5,0.5-0.9,0.8-0.9s0.6-0.3,0.6-0.6c0-0.3,0.4-0.8,0.8-1.1c0.4-0.3,0.9-1.1,1.1-1.8
		c0.1-0.7,0.6-1.4,1-1.7c0.4-0.2,0.8-1,0.9-1.7c0.1-0.7,0.6-1.6,1-2c0.5-0.4,0.8-1.2,0.8-1.9c0-0.6,0.3-1.5,0.6-1.8
		c0.3-0.3,0.8-1.6,1-2.9c0.2-1.2,0.7-2.7,1.1-3.3c1.1-1.6,1.1-21.6,0-22.7c-0.4-0.4-0.8-1.9-1-3.3c-0.2-1.4-0.6-2.6-0.8-2.8
		c-0.3-0.2-0.7-1.1-0.9-2s-0.7-2.2-1.2-2.7s-0.8-1.3-0.8-1.7c0-0.4-0.4-1.1-0.8-1.4s-0.8-0.9-0.8-1.1c0-0.2-0.4-0.9-0.8-1.4
		c-2.7-3.3-3.2-3.9-3.2-4.2c0-0.2-0.4-0.6-0.8-0.9c-0.4-0.3-0.8-0.8-0.8-1.1c0-0.3-0.3-0.6-0.6-0.6c-0.4,0-0.7-0.3-0.8-0.8
		c-0.1-0.4-0.6-0.9-1.2-1s-1-0.5-1-0.8c0-0.3-0.4-0.7-0.9-0.8s-1.4-0.6-2-1.1c-2.8-2.4-3.2-2.7-3.9-2.7c-0.4,0-1-0.4-1.4-0.8
		c-0.4-0.4-1-0.8-1.4-0.8s-1.1-0.4-1.7-0.8c-0.6-0.4-1.3-0.8-1.6-0.8c-0.3,0-1.4-0.4-2.5-1c-1.2-0.6-2.5-1-3.6-1
		c-1.8,0-3.8-0.7-3.8-1.3c0-0.2-0.8-0.3-1.7-0.3c-2.1,0-4.1-0.6-4.9-1.4c-0.3-0.3-1-0.6-1.4-0.6c-0.8,0-2.4-1-4.1-2.6
		c-0.5-0.5-1.2-0.9-1.6-1.1c-0.4-0.1-0.7-0.5-0.7-0.8s-0.4-0.7-0.8-0.8c-0.4-0.1-0.8-0.5-0.8-0.8c0-0.3-0.5-0.9-1-1.2
		c-0.6-0.4-1-0.8-1-1c0-0.2-0.4-0.8-0.8-1.2s-0.8-1.1-0.8-1.5c0-0.4-0.4-1.2-0.8-1.8c-0.6-0.7-0.9-1.9-1.1-3.6
		c-0.1-1.4-0.5-2.9-0.8-3.4c-0.7-1.1-0.6-8,0.2-9c0.2-0.3,0.5-1.5,0.7-2.7c0.1-1.2,0.5-2.4,0.8-2.8c0.3-0.4,0.8-1.3,1-2.1
		c0.3-0.8,0.7-1.6,1.1-1.7c0.3-0.1,0.6-0.4,0.6-0.7c0-0.3,0.4-0.9,0.8-1.3c0.4-0.4,1.4-1.5,2-2.3c0.7-0.8,1.5-1.5,1.8-1.5
		c0.3,0,0.6-0.3,0.6-0.6c0-0.3,0.5-0.8,1-1c0.6-0.2,1.1-0.6,1.2-1c0.1-0.3,0.8-0.7,1.6-0.8s1.7-0.6,2.2-1c0.5-0.5,1.3-0.8,2.6-0.8
		c1,0,1.8-0.2,1.8-0.4c0-1.5,61.8-1.8,64-0.4c0.7,0.4,2.2,0.7,4.6,0.8c2.6,0.1,4,0.4,4.7,0.9c0.6,0.4,2,0.8,3.2,0.9
		c1.1,0.1,2.6,0.6,3.3,1c0.7,0.4,1.7,0.7,2.2,0.7c0.5,0,1.4,0.3,2,0.7s1.5,0.9,2.2,1c0.7,0.2,1.6,0.6,2,1.1c0.4,0.4,1,0.8,1.3,0.8
		s1.1,0.4,1.8,1c0.7,0.6,1.4,1,1.7,1c0.3,0,0.7,0.4,1,0.8c0.2,0.4,0.7,0.8,1,0.8c0.3,0,0.7,0.3,0.8,0.6c0.1,0.3,0.8,0.8,1.4,1.1
		c1.5,0.6,6.9,6,7.6,7.5c0.3,0.6,0.7,1.2,1,1.2c0.3,0,0.6,0.3,0.6,0.6c0,0.3,0.4,1,1,1.5c0.5,0.5,1,1.1,1,1.4c0,0.3,0.4,0.9,0.8,1.3
		c0.4,0.4,0.8,1.1,0.8,1.5s0.4,1.1,1,1.6c0.6,0.6,1,1.4,1,2.1c0,0.7,0.3,1.3,0.7,1.6c0.4,0.3,0.9,1.1,1,2c0.1,0.9,0.5,1.8,0.8,2.1
		c0.3,0.3,0.7,1.5,0.9,2.8c0.2,1.3,0.5,2.6,0.9,3c0.4,0.4,0.7,1.9,0.9,3.9c0.2,1.8,0.5,3.4,0.8,3.8c1.2,1.4,1.3,8.4,1.2,90.9
		l-0.1,83.6l-0.9,1.5c-0.6,1-0.9,2.2-0.9,3.4c0,1.3-0.3,2.3-0.7,2.9c-0.4,0.5-0.8,1.7-1,2.5c-0.1,0.9-0.5,1.8-0.8,2.2
		c-0.3,0.4-0.8,1.4-1,2.3c-0.2,0.9-0.7,1.8-1,1.9c-0.3,0.1-0.6,0.7-0.6,1.2c0,0.5-0.5,1.5-1,2.1c-0.6,0.6-1,1.4-1,1.8
		c0,0.4-0.3,1-0.7,1.2c-0.4,0.3-0.9,0.9-1,1.4c-0.1,0.5-0.6,0.9-1.1,1.1c-0.4,0.1-0.8,0.5-0.8,0.8c0,0.4-0.3,1-0.7,1.4
		c-0.4,0.4-1.2,1.4-1.9,2.2c-1.3,1.7-3.5,3.9-5.4,5.4c-0.7,0.5-1.7,1.4-2.3,1.9c-0.6,0.5-1.3,0.9-1.6,0.9c-0.3,0-0.5,0.3-0.5,0.6
		s-0.3,0.7-0.7,0.8c-0.4,0.1-1.1,0.6-1.5,1c-0.4,0.4-1,0.8-1.5,0.8c-0.4,0-1.1,0.4-1.6,1c-0.5,0.6-1.3,1-1.9,1
		c-0.6,0-1.2,0.3-1.5,0.7c-0.3,0.4-1.1,0.9-1.9,1c-0.8,0.1-1.8,0.5-2.2,0.9c-0.4,0.3-1.5,0.8-2.5,1c-1,0.2-2.1,0.6-2.5,1
		c-0.4,0.4-1.3,0.7-2.2,0.7c-1.7,0-2.8,0.3-2.8,0.8c0,0.2,12.6,0.4,29.8,0.4H400V200V0h-95.8c-76.3,0-95.8,0.1-95.7,0.5
		c0.1,0.3,0.9,0.6,1.7,0.7c0.8,0.1,1.7,0.5,2,0.9c0.3,0.4,0.8,0.7,1.2,0.7c0.4,0,1.1,0.5,1.7,1s1.1,1,1.2,1c0.5,0,4.9,4.9,4.9,5.4
		c0,0.3,0.4,0.8,0.8,1.2c0.4,0.4,0.8,1,0.8,1.3s0.4,1,0.8,1.5c0.5,0.5,0.9,1.7,1.1,3c0.1,1.2,0.5,2.6,0.9,3.1
		c0.6,0.9,0.7,10.9,0.8,107c0.1,63,0.3,105.5,0.6,104.8c0.2-0.7,0.7-1.5,1.1-1.9c0.4-0.4,0.7-1.1,0.7-1.5s0.3-1.1,0.8-1.5
		c0.4-0.4,0.9-1.2,1.1-1.8c0.2-0.6,0.6-1.3,1-1.6c0.4-0.3,0.8-0.9,0.8-1.4c0-0.5,0.3-1.2,0.8-1.7c0.4-0.4,0.9-1.2,1.1-1.7
		c0.2-0.5,0.6-1.4,1-1.9c0.4-0.5,0.7-1.2,0.7-1.5c0-0.3,0.3-0.8,0.7-1c0.4-0.3,0.8-0.8,1-1.2c0.1-0.4,0.5-0.7,0.8-0.7
		c0.3,0,0.8-0.4,1-1c0.3-0.6,0.7-1,1.1-1c0.3,0,0.6-0.2,0.6-0.4c0-0.6,4.2-4.8,4.8-4.8c0.2,0,0.4-0.3,0.4-0.6c0-0.3,0.4-0.8,0.9-1
		c0.5-0.2,1.1-0.6,1.4-1c0.3-0.3,1.1-0.7,1.7-0.9c0.7-0.1,1.6-0.6,2-1c0.5-0.5,1.3-0.8,2.3-0.8c0.8,0,2.3-0.4,3.2-0.8
		c2.5-1.1,7.8-1.1,9.5,0c0.7,0.5,1.9,0.8,2.9,0.8c1.1,0,1.9,0.3,2.4,0.8c0.4,0.4,1.3,0.9,2,1c0.7,0.2,1.4,0.5,1.6,0.7
		c0.2,0.3,0.8,0.7,1.4,1.1c1.5,0.8,5.4,4.7,5.7,5.8c0.1,0.5,0.6,1.1,1,1.4c0.4,0.3,0.7,0.9,0.7,1.3c0,0.4,0.3,1,0.6,1.2
		c0.3,0.3,0.8,1.2,1,2.1c0.2,0.9,0.7,2.2,1.1,2.9c1.1,1.9,0.9,11.4-0.2,13.6c-0.5,0.9-0.9,2-0.9,2.5c0,0.5-0.4,1.3-0.8,1.7
		c-0.4,0.4-0.8,1.1-0.8,1.4c0,0.7-1,2.1-2.9,4.2c-0.6,0.7-1.1,1.4-1.1,1.5c0,0.2-0.4,0.4-0.8,0.5c-0.4,0.1-0.8,0.5-0.8,0.8
		c0,0.3-0.4,0.7-0.8,0.9c-0.4,0.1-0.9,0.6-1,1c-0.1,0.4-0.4,0.8-0.6,0.8c-0.5,0-4.8,4.3-4.8,4.8c0,0.2-0.2,0.4-0.4,0.4
		c-0.5,0-3.2,2.8-3.2,3.2c0,0.2-0.4,0.4-0.8,0.5c-0.4,0.1-0.8,0.5-0.8,0.8c0,0.3-0.4,0.7-0.8,0.9c-0.4,0.1-0.9,0.6-1,1
		c-0.1,0.4-0.6,0.8-1,0.9c-0.4,0.1-0.8,0.5-0.8,0.8c0,0.3-0.4,0.7-0.8,0.9c-0.4,0.1-0.9,0.6-1,1c-0.1,0.4-0.4,0.8-0.6,0.8
		c-0.5,0-4.8,4.3-4.8,4.8c0,0.2-0.2,0.4-0.4,0.4c-0.5,0-3.2,2.8-3.2,3.2c0,0.2-0.4,0.4-0.8,0.5c-0.4,0.1-0.8,0.5-0.8,0.8
		c0,0.3-0.4,0.7-0.8,0.9c-0.4,0.1-0.9,0.6-1,1c-0.1,0.4-0.6,0.8-1,0.9c-0.4,0.1-0.8,0.5-0.8,0.8c0,0.3-0.4,0.7-0.8,0.9
		c-0.4,0.1-0.9,0.6-1,1c-0.1,0.4-0.4,0.8-0.6,0.8c-0.5,0-4.8,4.3-4.8,4.8c0,0.2-0.2,0.4-0.4,0.4c-0.5,0-3.2,2.8-3.2,3.2
		c0,0.2-0.4,0.4-0.8,0.5c-0.4,0.1-0.8,0.5-0.8,0.8c0,0.3-0.4,0.7-0.8,0.9c-0.4,0.1-0.9,0.6-1,1c-0.1,0.4-0.6,0.8-1,0.9
		c-0.4,0.1-0.8,0.5-0.8,0.8c0,0.3-0.4,0.7-0.8,0.9c-0.4,0.1-0.9,0.6-1,1c-0.1,0.4-0.4,0.8-0.6,0.8c-0.5,0-4.8,4.3-4.8,4.8
		c0,0.2-0.2,0.4-0.4,0.4c-0.5,0-3.2,2.8-3.2,3.2c0,0.2-0.4,0.4-0.8,0.5c-0.4,0.1-0.8,0.5-0.8,0.8c0,0.3-0.4,0.8-1,1
		c-0.6,0.3-1,0.6-1,0.8c0,0.4-3.7,2.9-4.3,2.9c-0.2,0-0.7,0.4-1.1,0.8c-0.4,0.4-1.2,0.8-1.7,0.8c-0.5,0-2,0.5-3.2,1
		c-2.8,1.3-12.2,1.4-13.6,0.1c-0.4-0.4-1.5-0.8-2.4-0.9c-0.9-0.1-2-0.6-2.4-1c-0.4-0.4-0.9-0.8-1.3-0.8c-0.6,0-2.2-1.1-3.9-2.7
		c-0.5-0.5-1.1-0.9-1.2-0.9c-0.4,0-3-2.8-3-3.2c0-0.2-0.3-0.4-0.6-0.4c-0.3,0-0.8-0.4-1.1-1c-0.3-0.5-0.6-1-0.8-1
		c-0.5,0-13.5-13.1-13.5-13.6c0-0.2-0.3-0.4-0.6-0.4c-0.3,0-0.8-0.4-1.1-1c-0.3-0.5-0.6-1-0.8-1c-0.5,0-13.5-13.1-13.5-13.6
		c0-0.2-0.3-0.4-0.6-0.4c-0.3,0-0.8-0.4-1.1-1c-0.3-0.5-0.6-1-0.8-1c-0.5,0-13.5-13.1-13.5-13.6c0-0.2-0.3-0.4-0.6-0.4
		c-0.3,0-0.8-0.4-1.1-1c-0.3-0.6-0.6-1-0.8-1c-0.4,0-11.5-11.1-11.5-11.5c0-0.2-0.5-0.8-1-1.4c-0.5-0.6-1-1.4-1-1.7s-0.4-1.1-1-1.8
		c-0.7-0.8-1-1.7-1-2.6c0-0.8-0.3-1.8-0.8-2.4c-1.2-1.5-1.2-10.7,0-12.2c0.4-0.6,0.8-1.6,0.8-2.4c0-0.8,0.4-1.9,1-2.7
		c0.6-0.7,1-1.7,1-2.1c0-0.4,0.4-0.9,0.8-1.1s0.8-0.6,0.8-0.9c0-0.4,0.7-1.5,2.9-4.1c1-1.2,4.7-3.9,5.5-3.9c0.3,0,0.8-0.4,1.3-0.8
		c0.6-0.6,1.3-0.8,2.5-0.8c1.1,0,2.1-0.3,2.8-0.8c0.9-0.7,1.6-0.8,5.2-0.8c3.4,0,4.4,0.1,5.6,0.8c0.8,0.4,2.1,0.8,2.9,0.8
		c0.8,0,1.7,0.3,2.1,0.7c0.4,0.4,1.2,0.9,1.7,1c1.1,0.3,2.1,1,4.1,2.8c0.7,0.6,1.4,1.1,1.5,1.1c0.2,0,0.3,0.3,0.3,0.6
		c0,0.3,0.4,0.8,1,1s1,0.7,1,1c0,0.3,0.3,0.6,0.6,0.6c0.4,0,0.7,0.4,0.8,0.8c0.1,0.4,0.5,0.9,0.9,1c0.4,0.1,0.8,0.6,1,1
		c0.1,0.4,0.5,0.8,0.8,0.8c0.3,0,0.7,0.3,0.8,0.7c0.1,0.4,0.7,1.1,1.2,1.6c0.5,0.5,0.9,1.3,0.9,1.7c0,0.5,0.3,0.9,0.6,1.1
		c0.3,0.1,0.7,0.6,0.9,1.1c0.1,0.5,0.6,1.3,1,1.8c0.4,0.5,0.7,1.2,0.7,1.5c0,0.3,0.4,1.1,1,1.8c0.5,0.7,1,1.5,1,1.9
		c0,0.4,0.3,0.9,0.7,1.2s0.9,1,1,1.7c0.1,0.7,0.6,1.5,1,1.8c0.4,0.3,0.8,1.1,0.9,1.8c0.1,0.7,0.2-46,0.2-103.7
		c0.1-100.1,0.2-108.5,1.1-109.1c0.2-0.1,0.5-1.3,0.7-2.6c0.2-1.6,0.5-2.5,1-2.8c0.4-0.3,0.8-0.9,0.8-1.3c0-0.5,0.4-1.4,0.9-2
		c0.5-0.6,1-1.4,1.2-1.8c0.1-0.4,0.5-0.7,0.9-0.7c0.3,0,0.6-0.1,0.6-0.3c0-0.4,2.6-3.3,3-3.3c0.2,0,0.7-0.5,1.2-1
		c0.5-0.5,1.3-1,1.7-1s1-0.3,1.2-0.7c0.2-0.4,1.1-0.8,1.9-0.9c0.8-0.1,1.6-0.5,1.7-0.7C191.6,0.1,172.2,0,95.8,0H0V200"/>
	<path id="path1" class="st1" d="M197.6,0.6c0,0.9-2.4,1.8-4.7,1.8c-1.4,0-2.1,0.2-2.6,0.8c-0.4,0.4-1.1,0.8-1.7,0.8
		c-0.6,0-1.2,0.3-1.5,0.8c-0.3,0.4-0.7,0.8-1,0.8c-0.4,0-1.9,1.6-6.9,7.1c-0.5,0.5-0.8,1.4-0.8,2.1c0,0.7-0.4,1.5-0.9,2l-0.9,0.8
		l-0.1,109.5c-0.1,121.8,0.1,111.7-2.8,109.4c-0.8-0.7-1.6-1.7-1.8-2.3c-0.2-0.6-0.6-1.4-0.9-1.8c-0.3-0.4-0.7-1.1-0.9-1.6
		c-0.2-0.5-0.6-1.3-1-1.7c-0.4-0.4-0.8-1.1-0.8-1.5c0-0.4-0.4-1.2-1-1.8c-0.5-0.6-1-1.4-1-1.8s-0.3-0.9-0.6-1.1
		c-0.3-0.1-0.7-0.7-0.8-1.3s-0.6-1.4-1-1.8c-0.4-0.4-0.8-1-0.8-1.4c0-0.4-0.4-1.2-1-1.8c-0.6-0.6-1-1.3-1-1.6c0-0.3-0.4-0.7-1-1
		c-0.6-0.3-1-0.7-1-1.1c0-0.3-0.3-0.6-0.6-0.6c-0.4,0-0.7-0.3-0.8-0.8c-0.1-0.4-0.6-0.9-1.2-1.2c-0.5-0.2-1-0.7-1-1
		c0-0.3-0.2-0.6-0.5-0.6c-0.3,0-1.5-0.9-2.7-2c-1.2-1.1-2.4-2-2.7-2c-0.3,0-0.7-0.3-0.8-0.6c-0.1-0.3-1-0.8-2-1
		c-1-0.2-1.9-0.7-2.1-1.1c-0.5-1-14.7-1-15.4,0c-0.3,0.3-1.3,0.8-2.2,1c-1,0.2-1.9,0.7-2.1,1s-0.6,0.6-0.9,0.6
		c-0.8,0-4.6,3.8-4.6,4.6c0,0.4-0.4,0.8-0.8,0.9c-0.4,0.1-0.8,0.4-0.8,0.7c0,0.3-0.4,1.1-1,1.8c-0.6,0.7-1,1.8-1,2.3
		c0,0.5-0.4,1.3-0.9,1.7c-1.3,1.2-1.3,15.5,0,16.9c0.5,0.5,0.9,1.6,1.1,2.4c0.2,0.8,0.5,1.5,0.8,1.5s0.6,0.4,0.8,0.9
		c0.3,1.2,67.9,68.7,68.8,68.7c0.4,0,0.8,0.4,1.1,0.8c0.3,0.5,0.8,0.8,1.4,0.8c0.5,0,1.4,0.4,1.8,0.8c0.6,0.6,1.6,0.9,4.1,1.2
		c1.8,0.2,3.6,0.5,4,0.6c0.4,0.1,1.8,0.1,3.2-0.2c1.4-0.2,3.5-0.5,4.8-0.7c1.5-0.2,2.3-0.4,2.3-0.8c0-0.6,0.9-1,2.2-1
		c0.5,0,1.1-0.3,1.4-0.8c0.2-0.4,0.7-0.8,1-0.8c0.3,0,0.8-0.4,1.1-0.8c0.3-0.4,0.6-0.8,0.8-0.8c0.5,0,66.7-66.5,66.7-67
		c0-0.3,0.4-0.8,0.8-1.2s0.8-1,0.8-1.5c0-1.2,0.4-2,1-2c0.4,0,0.6-0.6,0.6-2.1c0-1.2,0.2-3,0.4-4.1c0.5-2.8-0.3-10.5-1.2-11.7
		c-0.4-0.5-0.8-1.5-0.9-2.3c-0.1-0.8-0.5-1.5-0.8-1.6c-0.3-0.1-0.6-0.5-0.6-0.8c0-0.3-0.4-0.9-1-1.4c-0.5-0.5-1-1.1-1-1.3
		c0-0.2-0.3-0.4-0.6-0.4s-0.7-0.4-0.8-0.8c-0.1-0.4-0.5-0.8-0.8-0.8c-0.3,0-0.9-0.4-1.4-1s-1.1-1-1.4-1s-1-0.4-1.5-0.8
		s-1.3-0.8-1.8-0.8c-0.5,0-1.3-0.4-1.9-0.8c-1.6-1.2-14.3-1.2-15.5,0c-0.4,0.4-1.3,0.8-2,0.8c-0.8,0-1.3,0.3-1.6,0.8
		c-0.2,0.4-1,0.9-1.6,1c-0.7,0.1-1.3,0.5-1.5,0.9c-0.1,0.3-0.7,0.8-1.2,1c-0.5,0.2-0.9,0.6-0.9,0.9c0,0.3-0.4,0.7-0.8,0.8
		c-0.4,0.1-0.9,0.6-1,1c-0.1,0.4-0.5,0.8-0.9,0.8c-0.3,0-0.7,0.4-0.8,0.8c-0.1,0.4-0.4,0.8-0.5,0.8c-0.4,0-1,0.7-2.2,2.2
		c-0.4,0.6-1.2,1.5-1.6,2c-0.5,0.5-1,1.4-1.1,2.1c-0.2,0.6-0.6,1.5-1.1,1.8c-0.4,0.4-0.8,1.1-0.8,1.5c0,0.5-0.3,0.9-0.8,1
		c-0.6,0.1-0.8,0.5-0.8,1.4c0,0.7-0.4,1.5-1,2c-0.6,0.5-1,1.3-1,1.8c0,0.5-0.3,1.1-0.7,1.4c-0.4,0.3-0.9,1.1-1,1.7
		c-0.2,0.7-0.6,1.5-1.1,1.9c-0.4,0.4-0.8,1.2-0.8,1.7c0,0.7-0.5,1.3-1.6,2c-3.1,2-2.8,12.7-2.8-109c0-107.9,0-109.1-0.8-110.1
		c-0.4-0.5-0.9-1.7-1.1-2.7c-0.2-1-0.5-1.7-0.8-1.7c-0.3,0-0.6-0.4-0.8-0.9c-0.2-0.5-0.7-1.3-1.1-1.8c-0.5-0.5-1-1.1-1.3-1.4
		c-1.5-1.9-5.6-5.1-6.4-5.1c-0.5,0-1.3-0.4-1.6-0.8c-0.5-0.6-1.2-0.8-2.5-0.8c-2.6-0.1-3.8-0.5-4.2-1.5
		C202.5-0.2,197.6-0.5,197.6,0.6 M66.8,126.8c-4.4,0.2-6,0.4-6.8,0.9c-0.6,0.4-2.3,0.8-4.2,0.9c-2.5,0.2-3.3,0.4-3.7,1
		c-0.4,0.6-1,0.8-2.1,0.8c-1,0-1.8,0.3-2.2,0.8c-0.4,0.4-1.1,0.8-1.6,0.8s-1.3,0.3-1.9,0.8c-0.5,0.4-1.5,0.9-2.1,1
		c-0.6,0.1-1.1,0.4-1.1,0.6c0,0.2-0.6,0.6-1.4,1c-0.8,0.3-1.7,0.9-2.1,1.3c-0.4,0.4-1.3,1.1-2.1,1.7c-2.3,1.7-10,9.7-10,10.4
		c0,0.2-0.5,0.8-1,1.4c-0.6,0.6-1,1.4-1,1.8c0,0.4-0.3,0.9-0.7,1.2c-0.4,0.2-0.9,0.9-1,1.6c-0.1,0.7-0.6,1.6-1.1,2
		c-0.4,0.4-0.8,1.3-0.8,1.8c0,0.5-0.3,1.3-0.7,1.7c-0.4,0.4-0.8,1.5-1,2.5c-0.1,1-0.5,2-0.8,2.2c-0.3,0.2-0.7,1.5-0.9,3.1
		c-0.2,1.6-0.6,3-0.9,3.3c-0.4,0.4-0.7,1.9-0.9,5.2c-0.2,3.1-0.5,4.9-0.9,5.6c-0.9,1.4-1,162.8,0,163.8c0.4,0.4,0.7,2.2,1,4.9
		c0.2,2.8,0.6,4.5,0.9,4.8c0.3,0.3,0.7,1.6,0.8,2.8c0.2,1.4,0.6,2.6,1.1,3.1c0.4,0.5,0.8,1.4,0.8,2c0,0.6,0.3,1.4,0.8,1.8
		c0.4,0.4,0.9,1.3,1,2c0.2,0.7,0.5,1.4,0.8,1.5c0.3,0.1,0.6,0.6,0.8,1.2c0.1,0.5,0.6,1.3,1,1.8c0.4,0.4,0.8,1.1,0.8,1.6
		s0.4,0.9,0.8,1c0.4,0.1,0.9,0.7,1,1.2c0.1,0.5,0.5,1,0.8,1c0.3,0,0.6,0.2,0.6,0.4c0,0.2,1.8,2.2,4.1,4.4s4.5,4.3,4.9,4.8
		c0.4,0.4,1,0.8,1.3,0.8c0.3,0,0.7,0.4,0.9,0.8s0.8,0.8,1.1,0.8c0.4,0,1.1,0.5,1.7,1c0.5,0.6,1.3,1,1.7,1c0.4,0,0.8,0.3,1,0.6
		c0.1,0.3,0.9,0.8,1.8,1c0.9,0.2,1.7,0.7,1.8,1c0.1,0.3,1,0.7,1.9,0.8c0.9,0.2,2,0.6,2.4,0.9c0.4,0.3,1.7,0.8,3,0.9
		c1.3,0.2,2.5,0.6,2.7,0.9c0.3,0.4,1.7,0.6,4.4,0.8c4.6,0.3,7,0.9,7,1.7c0,0.5,16.7,0.6,130.8,0.6s130.8-0.1,130.8-0.6
		c0-0.9,2.4-1.4,7.6-1.7c3.4-0.2,4.7-0.4,5-0.9c0.2-0.3,1.5-0.7,2.8-0.9c1.3-0.2,2.5-0.6,2.7-0.9c0.2-0.3,1-0.7,1.8-0.9
		c0.8-0.2,1.9-0.6,2.5-1c0.5-0.4,1.4-0.8,1.9-0.8c0.5,0,1.1-0.3,1.3-0.7c0.2-0.4,1-0.9,1.7-1s1.5-0.6,1.8-1.1c0.3-0.4,0.8-0.8,1-0.8
		c0.3,0,0.9-0.5,1.4-1s1.2-1,1.5-1c0.3,0,0.7-0.4,1-0.8s0.6-0.8,0.9-0.8s0.7-0.4,1-0.8c0.3-0.4,0.8-0.8,1.1-0.8
		c0.3,0,0.6-0.3,0.6-0.6c0-0.3,0.4-0.8,1-1c0.5-0.2,1-0.6,1-1c0-0.3,0.4-0.7,0.8-0.8c0.4-0.1,0.8-0.5,0.8-0.8c0-0.3,0.3-0.7,0.6-0.8
		c0.3-0.1,0.8-0.7,1-1.2c0.2-0.5,0.6-0.9,1-0.9c0.3,0,0.6-0.3,0.6-0.8s0.4-1.2,1-1.7c0.5-0.5,1-1.2,1-1.4c0-0.3,0.3-0.7,0.7-1
		c0.4-0.3,0.9-1.1,1-1.7c0.2-0.7,0.6-1.5,1.1-1.9c0.4-0.4,0.8-1.2,0.8-1.7c0-0.5,0.4-1.3,0.8-1.7c0.4-0.4,0.8-1.2,0.8-1.8
		c0-0.6,0.4-1.5,0.8-2c0.6-0.6,0.9-1.6,1.1-3.2c0.2-1.4,0.5-2.6,0.9-2.9c0.5-0.4,0.7-1.6,0.9-4.4c0.2-2.7,0.5-4.4,0.9-5.2
		c1.2-2.1,1.3-158.2,0.1-160.9c-0.6-1.3-0.9-3.1-1.1-6.5c-0.2-3.4-0.4-4.8-0.9-5.4c-0.4-0.4-0.7-1.9-0.9-3.5
		c-0.2-1.9-0.5-2.9-0.9-3.3c-0.4-0.3-0.8-1.3-0.9-2.6c-0.2-1.3-0.4-2.1-0.8-2.1c-0.6,0-1-0.9-1-2.4c0-0.7-0.3-1.3-0.8-1.6
		c-0.4-0.2-0.9-1-1.1-1.7c-0.2-0.7-0.6-1.5-1-1.8c-0.4-0.3-0.7-0.8-0.7-1c0-0.3-0.4-0.8-0.8-1.2c-0.4-0.4-0.9-1.1-1-1.5
		c-0.3-0.9-0.4-1-4.5-5.4c-1.7-1.8-3.3-3.3-3.5-3.3c-0.2,0-0.5-0.4-0.7-0.8c-0.1-0.4-0.5-0.8-0.8-0.8c-0.3,0-0.8-0.3-1.1-0.7
		c-0.3-0.4-1-0.9-1.6-1c-0.6-0.1-1.3-0.6-1.5-1.1c-0.2-0.4-0.8-0.8-1.2-0.8c-0.4,0-0.9-0.3-1-0.6c-0.1-0.3-0.9-0.8-1.8-1.1
		c-0.9-0.3-1.7-0.7-1.8-1c-0.1-0.3-0.9-0.6-1.7-0.8c-0.9-0.1-2-0.6-2.5-1c-0.5-0.4-1.5-0.8-2.2-0.8c-1.2,0-2.8-0.6-3.2-1.2
		c-0.1-0.2-1.7-0.5-3.4-0.7c-1.8-0.2-3.8-0.7-4.5-1c-1.9-1-69.5-1-70,0c-0.2,0.3-1.1,0.8-2,1c-0.9,0.2-2,0.7-2.5,1.2
		c-0.4,0.4-1.2,0.8-1.6,0.8c-0.4,0-0.8,0.3-0.8,0.6c0,0.3-0.4,0.8-1,1.1c-0.5,0.3-1,0.7-1,1s-0.3,0.6-0.7,0.7
		c-0.4,0.1-0.9,0.7-1.2,1.2c-0.2,0.5-0.6,1-0.8,1c-0.2,0-0.5,0.5-0.6,1.2c-0.1,0.7-0.6,1.4-1,1.6c-0.4,0.2-0.8,0.8-0.8,1.4
		c0,1.2-0.6,2.9-1.4,3.7c-1,1-0.9,12.3,0.2,14.2c0.4,0.8,0.9,2.1,1.1,3c0.2,0.9,0.6,1.8,1,2.1c0.4,0.3,0.7,0.8,0.7,1
		c0,0.3,0.4,1,1,1.7c0.5,0.6,1,1.4,1,1.6c0,0.3,0.4,0.6,0.8,0.7c0.4,0.1,0.9,0.6,1,1c0.1,0.4,0.5,0.8,0.7,0.8c0.3,0,1,0.5,1.6,1
		c0.6,0.6,1.4,1,1.7,1c0.3,0,0.8,0.3,1,0.7c0.3,0.4,1.3,0.9,2.4,1c1,0.2,2.2,0.6,2.6,1.1c0.6,0.6,1.2,0.8,3.5,0.8
		c2.2,0,3.1,0.2,4,0.8c0.7,0.4,1.9,0.8,2.7,0.8c0.9,0,1.8,0.3,2.3,0.8c0.4,0.4,1.4,0.9,2.1,1c0.7,0.2,1.7,0.6,2.1,1
		c0.4,0.4,1.3,0.8,1.9,1c0.6,0.1,1.1,0.5,1.1,0.8c0,0.3,0.6,0.7,1.4,0.8c0.8,0.1,1.6,0.6,1.8,1c0.2,0.4,0.6,0.8,0.8,0.8
		c0.2,0,0.8,0.4,1.3,0.9c0.5,0.5,1.5,1.4,2.3,2.1c0.8,0.7,1.5,1.4,1.5,1.7c0,0.3,0.4,0.5,0.8,0.5s0.8,0.3,0.8,0.6
		c0,0.3,0.4,0.9,1,1.2c0.5,0.4,1,0.8,1,1c0,0.2,0.7,1.1,1.6,2c0.9,0.9,1.7,2.2,1.8,2.8c0.1,0.6,0.5,1.2,1,1.3
		c0.5,0.1,0.8,0.6,0.8,1.2c0,0.5,0.3,1.1,0.6,1.2c0.3,0.1,0.8,1,1,1.9c0.3,0.9,0.8,2.1,1.2,2.7c0.4,0.5,0.8,1.6,0.8,2.3
		c0,0.7,0.3,1.6,0.7,2c0.5,0.5,0.8,1.6,0.9,3.9c0.2,2.4,0.4,3.3,0.9,3.7c1.1,0.8,1.1,14.6,0.1,15.7c-0.5,0.5-0.8,1.8-1,3.9
		c-0.2,2.2-0.5,3.4-1,3.9c-0.4,0.4-0.7,1.3-0.7,2.1c0,0.8-0.3,1.7-0.7,2.1c-0.4,0.4-0.9,1.4-1,2.2c-0.2,0.8-0.6,1.7-1.1,2
		c-0.4,0.3-0.8,0.9-0.8,1.5c0,0.6-0.4,1.4-1,1.9c-0.5,0.5-1,1.1-1,1.3c0,0.7-2.3,3.7-5.3,6.8c-1,1.1-1.9,2.2-1.9,2.4
		c0,0.2-0.2,0.4-0.4,0.4c-0.5,0-8.4,7.9-8.4,8.4c0,0.2-0.2,0.4-0.4,0.4c-0.5,0-4.8,4.3-4.8,4.8c0,0.2-0.4,0.5-0.8,0.6
		c-0.4,0.1-0.9,0.6-1,1c-0.1,0.4-0.4,0.8-0.6,0.8c-0.5,0-8.4,7.9-8.4,8.4c0,0.2-0.2,0.4-0.4,0.4c-0.5,0-4.8,4.3-4.8,4.8
		c0,0.2-0.4,0.5-0.8,0.6c-0.4,0.1-0.9,0.6-1,1c-0.1,0.4-0.4,0.8-0.6,0.8c-0.5,0-8.4,7.9-8.4,8.4c0,0.2-0.2,0.4-0.4,0.4
		c-0.5,0-4.8,4.3-4.8,4.8c0,0.2-0.4,0.5-0.8,0.6c-0.4,0.1-0.9,0.6-1,1c-0.1,0.4-0.4,0.8-0.6,0.8c-0.5,0-8.4,7.9-8.4,8.4
		c0,0.2-0.2,0.4-0.4,0.4s-2,1.6-4,3.6c-2,2-3.7,3.6-3.9,3.6c-0.1,0-0.7,0.4-1.2,1c-0.5,0.5-1.3,1-1.7,1c-0.4,0-0.8,0.3-0.8,0.6
		s-0.4,0.7-0.9,0.8c-0.5,0.1-1.3,0.6-1.7,1s-1.3,0.8-1.8,1c-0.6,0.2-1.3,0.6-1.7,1c-0.4,0.4-1.2,0.8-1.8,0.8c-0.6,0-1.4,0.3-1.8,0.8
		c-0.4,0.5-1.5,0.9-2.9,1c-1.2,0.2-2.7,0.6-3.3,1c-2.1,1.5-24.3,1.4-25.4-0.1c-0.3-0.4-1.4-0.8-2.7-0.9c-1.4-0.2-2.5-0.6-2.9-1
		c-0.4-0.4-1.2-0.8-1.8-0.8c-0.6,0-1.4-0.3-1.8-0.8c-0.4-0.4-1.3-0.9-2-1c-0.7-0.1-1.4-0.5-1.5-0.8c-0.1-0.3-0.8-0.8-1.6-1.1
		c-0.8-0.3-1.4-0.8-1.4-1c0-0.2-0.3-0.4-0.6-0.4s-1.1-0.5-1.6-1c-0.6-0.6-1.1-1-1.2-1c-0.1,0-1-0.8-2-1.8c-1-1-2-1.8-2.2-1.8
		c-0.2,0-0.4-0.3-0.4-0.6c0-0.4-0.4-0.7-0.8-0.8c-0.4-0.1-0.9-0.5-1-0.9c-0.1-0.4-0.6-0.8-1-1c-0.4-0.1-0.8-0.5-0.8-0.9
		c0-0.3-0.4-0.7-0.8-0.8c-0.5-0.1-1-0.6-1.2-1.2c-0.2-0.5-0.6-0.9-1-0.9c-0.3,0-0.6-0.3-0.6-0.6c0-0.4-0.4-0.7-0.8-0.8
		c-0.4-0.1-0.9-0.5-1-0.9c-0.1-0.4-0.6-0.8-1-1c-0.4-0.1-0.8-0.4-0.8-0.7c0-0.2-1.2-1.6-2.6-2.9c-1.4-1.4-2.6-2.7-2.6-3
		c0-0.2-0.3-0.4-0.6-0.4c-0.3,0-0.8-0.4-1-1c-0.2-0.5-0.8-1.1-1.2-1.2c-0.4-0.1-0.8-0.5-0.8-0.8c0-0.4-0.3-0.6-0.6-0.6
		c-0.3,0-0.8-0.4-1.1-1c-0.3-0.5-0.6-1-0.8-1c-0.4,0-2.7-2.3-2.7-2.8c0-0.2-0.4-0.5-1-0.7c-0.5-0.3-1-0.7-1-1.1
		c0-0.3-0.3-0.6-0.6-0.6c-0.3,0-0.8-0.5-1.1-1c-0.3-0.6-0.7-1-1-1c-0.3,0-0.5-0.2-0.5-0.5c0-0.3-0.4-0.7-1-1c-0.6-0.3-1-0.7-1-1
		c0-0.3-0.4-0.7-0.8-0.8c-0.4-0.1-0.8-0.5-0.8-0.8c0-0.3-0.5-0.8-1-1c-0.6-0.2-1-0.6-1-1c0-0.3-0.4-0.7-0.8-0.8
		c-0.4-0.1-0.9-0.6-1-1c-0.1-0.4-0.5-0.8-0.8-0.8s-0.7-0.4-0.8-0.8c-0.1-0.4-0.6-0.9-1-1c-0.4-0.1-0.8-0.4-0.8-0.7
		c0-0.5-2.3-2.7-2.8-2.7c-0.2,0-0.5-0.5-0.7-1c-0.3-0.6-0.7-1-1.1-1c-0.3,0-0.6-0.2-0.6-0.4s-4-4.4-9-9.4c-4.9-5-9.1-9.5-9.2-10
		s-0.5-1-0.8-1s-0.7-0.4-0.8-1c-0.1-0.5-0.6-1.1-1-1.2c-0.4-0.1-0.8-0.8-0.9-1.4c-0.1-0.6-0.6-1.5-1-2c-0.4-0.4-0.8-1.2-0.8-1.6
		s-0.3-0.9-0.6-1.1c-0.3-0.2-0.8-1.1-1-2.1c-0.2-1-0.6-1.9-0.9-2.1c-0.3-0.2-0.7-1.2-0.8-2.4c-0.2-1.2-0.6-2.5-1-3.1
		c-0.6-0.7-0.7-1.6-0.7-3.8c0-2.1-0.2-3.1-0.7-3.8c-0.6-0.8-0.7-1.9-0.7-7.2c0-5.1,0.1-6.4,0.7-7.5c0.5-0.9,0.7-2.2,0.7-3.9
		c0-2.1,0.2-2.8,0.8-3.4c0.4-0.4,0.9-1.6,1.1-2.5c0.1-0.9,0.6-2,1-2.4c0.4-0.4,0.7-1.2,0.7-1.9c0-0.7,0.3-1.4,0.8-1.7
		c0.4-0.3,0.8-0.8,0.8-1.2c0-0.4,0.5-1.2,1-1.9c0.6-0.7,1-1.4,1-1.6c0-0.2,0.4-0.7,0.8-0.9c0.4-0.3,0.8-0.7,0.8-0.9
		c0-1.2,8.7-9.8,9.9-9.8c0.2,0,0.6-0.4,0.9-0.8c0.2-0.4,0.7-0.8,1-0.8c0.3,0,1-0.4,1.5-1c0.5-0.6,1.3-1,1.8-1c0.5,0,1.1-0.3,1.3-0.7
		c0.2-0.4,1-0.8,2-1c0.9-0.1,1.7-0.5,1.9-0.9c0.2-0.3,1.2-0.7,2.3-0.9c1.1-0.1,2.3-0.6,2.7-1c0.6-0.6,1.3-0.7,3.6-0.7
		c2.4,0,3.1-0.2,4-0.9c0.6-0.5,1.9-0.9,2.9-1.1c1-0.1,1.8-0.4,1.8-0.6c0-0.2,0.8-0.7,1.8-1.1c1-0.4,1.8-1,1.8-1.2
		c0-0.2,0.2-0.4,0.5-0.4c0.6,0,4.5-3.9,4.8-4.9c0.1-0.4,0.5-0.7,0.8-0.7c0.3,0,0.7-0.6,0.8-1.6c0.2-1,0.5-1.6,0.8-1.6
		c0.7,0,1-0.9,1-2.7c0-0.8,0.4-2.1,0.8-3c0.6-1.1,0.8-2.3,0.8-4.7c0-2.2-0.2-3.8-0.8-5.2c-0.4-1.1-0.8-2.7-0.8-3.6
		c0-1-0.3-1.8-0.8-2.2c-0.4-0.4-0.9-1.2-1-1.9c-0.1-0.7-0.5-1.3-0.8-1.4c-0.3-0.1-0.7-0.7-1-1.4c-0.3-0.7-0.8-1.4-1.2-1.6
		c-0.4-0.2-0.7-0.7-0.7-1c0-0.3-0.3-0.6-0.6-0.6c-0.3,0-1-0.4-1.5-1c-0.5-0.5-1-1-1.2-1c-0.2,0-0.9-0.4-1.6-1c-0.7-0.5-1.6-1-2.2-1
		c-0.6,0-1.3-0.4-1.7-0.9l-0.7-0.9l-29.7,0C86,126.6,70,126.6,66.8,126.8"/>
	<path id="path2" class="st2" d="M195.2,0.6c0,0.6-1.1,1-4.3,1.6c-0.7,0.1-1.5,0.5-1.7,0.8s-0.7,0.6-1,0.6c-1.1,0-8.6,6.7-8.6,7.7
		c0,0.2-0.3,0.8-0.7,1.2c-0.4,0.4-0.5,0.7-0.2,0.7c0.2,0,0.8-0.5,1.2-1.1c1-1.6,5.8-6.5,6.3-6.5c0.2,0,0.7-0.4,0.9-0.8
		c0.3-0.5,0.9-0.8,1.5-0.8c0.6,0,1.3-0.4,1.7-0.8c0.5-0.6,1.2-0.8,2.6-0.8c1.1,0,2.5-0.3,3.3-0.6c1.8-0.7,1.9-1.8,0.2-1.8
		C195.6,0,195.2,0.2,195.2,0.6 M202.8,0.6c0,1,1.1,1.5,3.7,1.7c1.7,0.1,2.7,0.5,3.2,1c0.4,0.4,1.1,0.7,1.6,0.7
		c0.8,0,4.9,3.3,6.4,5.1c0.2,0.3,0.8,0.9,1.3,1.4c0.5,0.5,1,1.3,1.1,1.8c0.2,0.5,0.5,0.9,0.8,0.9c0.3,0,0.6,0.7,0.8,1.7
		c0.1,0.9,0.6,2.1,1.1,2.7c1,1.3,1,0.3,0-1.7c-0.4-0.9-0.8-1.8-0.8-2c0-0.2-0.4-0.8-0.8-1.2c-0.4-0.4-0.8-0.9-0.8-1.1
		c0-1.3-7.1-7.9-8.5-7.9c-0.3,0-0.8-0.3-1.1-0.6c-0.3-0.3-1.6-0.8-2.9-1.1c-1.5-0.3-2.6-0.7-2.9-1.2C204.5-0.1,202.8-0.3,202.8,0.6
		 M177.4,15.5c-1.8,3.9-1.8,2.6-1.8,114.3c0,58.6-0.1,106.6-0.3,106.6c-1.3-0.1-4.1-4.2-6.4-9.3c-0.4-0.8-0.8-1.5-1-1.5
		c-0.2,0-0.6-0.7-1-1.5c-0.4-0.8-1.2-2.4-1.8-3.5c-0.6-1.1-1.4-2.6-1.8-3.4c-0.8-1.6-11.3-12.2-12.6-12.6c-0.5-0.2-1.2-0.6-1.6-1
		c-0.4-0.4-1.1-0.8-1.4-0.8c-0.4,0-1.2-0.3-1.9-0.8c-2.9-1.8-14.1-1.8-17.6,0c-0.8,0.4-1.8,0.8-2.1,0.8c-0.3,0-0.9,0.3-1.3,0.7
		c-0.4,0.4-1.3,0.9-1.9,1.2c-1.1,0.5-1.7,1.1-4.6,5.1c-0.6,0.9-1.3,1.8-1.5,2c-0.6,0.8-2.5,5-2.3,5.2c0.4,0.4,1.5-1.1,1.5-2
		c0-0.5,0.4-1.5,1-2.2c0.6-0.7,1-1.6,1-1.8c0-0.3,0.4-0.6,0.8-0.7c0.4-0.1,0.8-0.5,0.8-0.9c0-0.8,3.8-4.6,4.6-4.6
		c0.3,0,0.7-0.3,0.9-0.6s1.1-0.8,2.1-1c1-0.2,2-0.7,2.2-1c0.7-1,14.9-0.9,15.4,0c0.2,0.4,1.1,0.8,2.1,1.1c1,0.2,1.8,0.7,2,1
		c0.1,0.3,0.5,0.6,0.8,0.6c0.3,0,1.5,0.9,2.7,2c1.2,1.1,2.4,2,2.7,2c0.3,0,0.5,0.3,0.5,0.6c0,0.3,0.4,0.8,1,1.1c0.5,0.3,1,0.7,1,1
		c0,0.3,0.4,0.7,0.8,0.8c0.4,0.1,0.8,0.5,0.8,0.8c0,0.3,0.4,0.8,1,1c0.6,0.3,1,0.7,1,1c0,0.3,0.4,1,1,1.6c0.6,0.6,1,1.4,1,1.8
		c0,0.4,0.4,1,0.8,1.4c0.4,0.4,0.9,1.2,1,1.8s0.5,1.2,0.8,1.3c0.3,0.1,0.6,0.6,0.6,1.1s0.5,1.3,1,1.8c0.6,0.6,1,1.4,1,1.8
		c0,0.4,0.3,1.1,0.8,1.5c0.4,0.4,0.9,1.2,1,1.7c0.2,0.5,0.5,1.2,0.9,1.6c0.3,0.4,0.7,1.2,0.9,1.8c0.2,0.6,1,1.7,1.8,2.3
		c2.9,2.4,2.7,12.5,2.8-109.4l0.1-109.5l0.9-0.8c0.5-0.5,0.9-1.3,0.9-2C178.4,13.3,178.4,13.3,177.4,15.5 M223.7,127.7
		c-0.1,121.7-0.3,111,2.7,109c1.1-0.8,1.6-1.3,1.6-2c0-0.5,0.3-1.3,0.8-1.7c0.4-0.4,0.9-1.3,1.1-1.9c0.2-0.7,0.6-1.4,1-1.7
		c0.4-0.3,0.7-0.9,0.7-1.4c0-0.5,0.4-1.3,1-1.8c0.6-0.6,1-1.3,1-2c0-0.8,0.2-1.2,0.8-1.4c0.5-0.1,0.8-0.5,0.8-1
		c0-0.5,0.3-1.1,0.8-1.5c0.4-0.4,0.9-1.2,1.1-1.8c0.2-0.6,0.7-1.6,1.1-2.1c0.5-0.5,1.2-1.4,1.6-2c1.2-1.6,1.8-2.2,2.2-2.2
		c0.2,0,0.4-0.3,0.4-0.6c0-0.4,0.4-0.7,0.8-0.8c0.4-0.1,0.9-0.5,1-0.9c0.1-0.4,0.6-0.8,1-1c0.4-0.1,0.8-0.5,0.8-0.8
		c0-0.3,0.4-0.7,0.9-0.9c0.5-0.2,1-0.6,1.2-1c0.1-0.3,0.8-0.7,1.5-0.9c0.7-0.1,1.4-0.6,1.6-1c0.3-0.5,0.8-0.8,1.6-0.8
		c0.7,0,1.5-0.4,2-0.8c0.7-0.7,1.3-0.8,7.6-0.8c6.2,0,6.9,0.1,7.9,0.8c0.6,0.4,1.4,0.8,1.9,0.8c0.5,0,1.3,0.4,1.8,0.8
		s1.2,0.8,1.5,0.8s0.9,0.4,1.4,1s1.1,1,1.4,1c0.3,0,0.6,0.4,0.8,0.8c0.1,0.4,0.5,0.8,0.8,0.8s0.6,0.2,0.6,0.4c0,0.2,0.5,0.8,1,1.3
		c0.6,0.5,1,1.1,1,1.4c0,0.3,0.3,0.6,0.6,0.8c0.3,0.1,0.7,0.8,0.8,1.6c0.1,0.8,0.6,1.8,0.9,2.3c0.9,1.2,1.7,8.9,1.2,11.7
		c-0.2,1.1-0.4,2.9-0.4,4.1c0,1.5-0.2,2.1-0.6,2.1c-0.6,0-1,0.8-1,2c0,0.4-0.4,1.1-0.8,1.5s-0.8,0.9-0.8,1.2c0,0.5-66.3,67-66.7,67
		c-0.1,0-0.5,0.4-0.8,0.8c-0.3,0.4-0.8,0.8-1.1,0.8c-0.3,0-0.8,0.4-1,0.8c-0.2,0.5-0.8,0.8-1.4,0.8c-1.3,0-2.2,0.4-2.2,1
		c0,0.4-0.8,0.6-2.3,0.8c-1.3,0.1-3.4,0.4-4.8,0.7c-1.4,0.2-2.8,0.3-3.2,0.2c-0.4-0.2-2.2-0.4-4-0.6c-2.5-0.3-3.5-0.5-4.1-1.2
		c-0.5-0.5-1.3-0.8-1.8-0.8c-0.6,0-1.2-0.3-1.4-0.8c-0.2-0.4-0.7-0.8-1.1-0.8c-0.9,0-68.5-67.5-68.8-68.7c-0.1-0.5-0.5-0.9-0.8-0.9
		s-0.6-0.7-0.8-1.5c-0.2-0.8-0.6-1.9-1.1-2.4c-0.8-0.8-0.8-1.4-0.8-8.6l0-7.7l-0.7,3.4c-0.4,1.9-0.7,4.1-0.5,5c0.5,3.9,1.5,8.4,2,9
		c0.3,0.4,0.6,0.9,0.6,1.2c0,1.6,5.7,7.6,35.7,37.5c31.9,31.8,34.8,34.6,37.6,35.9c0.7,0.3,1.6,0.8,1.9,1c4.1,2.6,13.9,2.3,20.2-0.7
		c5.4-2.6,73.4-70.3,73.4-73.1c0-0.3,0.3-1,0.7-1.4c0.4-0.4,0.9-2,1.2-3.6c0.3-1.6,0.7-3.7,0.9-4.7c0.2-1,0.2-2.5,0-3.4
		c-1.3-6.3-1.6-7.5-3.2-10.4c-1.4-2.7-7-8.6-8.2-8.6c-0.3,0-0.6-0.2-0.6-0.4c0-0.2-0.6-0.6-1.3-0.8c-0.7-0.3-2.1-0.9-3.1-1.3
		c-1.6-0.8-2.5-0.9-8.3-0.9c-6.9,0-6.8,0-11.3,2.4c-0.6,0.3-1.6,0.8-2.3,1.2c-0.7,0.3-1.4,0.9-1.5,1.2c-0.1,0.3-0.4,0.6-0.6,0.6
		c-1.1,0-10.3,10.6-10.3,11.9c0,0.3-0.2,0.5-0.4,0.5c-0.2,0-0.6,0.6-0.8,1.4c-0.2,0.7-0.8,1.7-1.2,2.1c-0.4,0.4-0.8,1-0.8,1.3
		c0,0.3-0.4,1.3-0.9,2c-1.8,2.8-1.9,3-2.6,4.5c-0.4,0.8-0.8,1.5-1,1.5c-0.2,0-0.5,0.7-0.8,1.6c-0.3,0.9-0.9,1.8-1.3,2.1
		c-0.5,0.2-0.9,0.6-1.1,0.8c-1.1,1.7-1.1-2.3-1.2-106.6c0-58.6-0.2-107.5-0.3-108.7C223.8,19.6,223.7,67.7,223.7,127.7 M68.4,125.9
		c-8.6,0.9-13.9,1.9-17,3.4c-0.9,0.4-1.9,0.8-2.1,0.8c-0.5,0-4.5,1.7-5.6,2.4c-0.3,0.2-1.4,0.8-2.3,1.2c-0.9,0.5-1.9,1.1-2.1,1.4
		c-0.3,0.3-0.6,0.6-0.8,0.6c-0.2,0-0.7,0.3-1.1,0.7c-0.4,0.4-1.2,1-1.7,1.4c-2,1.5-4.2,3.4-5.3,4.6c-3.3,3.6-5.9,6.8-6.8,8.8
		c-0.3,0.7-0.8,1.4-1.2,1.7c-0.3,0.3-0.7,0.9-0.8,1.5c-0.1,0.6-0.5,1.3-0.8,1.6s-0.7,1.1-0.8,1.7s-0.5,1.3-0.8,1.7s-0.8,1.6-1.2,2.9
		c-0.4,1.3-0.8,2.4-1,2.5c-0.2,0.1-0.4,0.8-0.4,1.4c0,0.6-0.4,2.1-0.8,3.3c-0.4,1.2-1,3.5-1.2,5.1c-0.2,1.7-0.6,4.3-1,5.9
		c-1,4.6-0.7,166.5,0.3,169.5c0.4,1.1,0.7,2.6,0.7,3.4c0,0.8,0.3,2.2,0.6,3c0.3,0.9,0.8,2.5,1.1,3.6c0.3,1.1,0.8,2.5,1.2,3.2
		s0.8,1.6,1,2.2c0.2,0.5,0.6,1.3,0.7,1.6c0.2,0.3,0.6,1.1,0.8,1.6c0.2,0.6,1,1.8,1.6,2.8c0.7,1,1.3,2.1,1.5,2.4
		c1.4,2.8,12.3,14,13.7,14c0.2,0,0.4,0.1,0.4,0.3c0,0.2,0.9,0.9,2.1,1.7c1.2,0.7,2.7,1.7,3.5,2.3c0.8,0.5,1.7,0.9,2,0.9
		c0.3,0,0.9,0.3,1.3,0.8c0.4,0.4,1.4,0.9,2.2,1c0.8,0.2,1.8,0.5,2.1,0.8c0.3,0.3,1.5,0.7,2.5,0.9c1,0.2,2.1,0.5,2.4,0.8
		c0.3,0.2,1.9,0.6,3.5,0.9c1.6,0.2,3.6,0.5,4.3,0.6c0.7,0.1,1.4,0.5,1.5,0.8c0.3,0.8,3.7,0.8,3.7,0c0-0.8-2.4-1.4-7-1.7
		c-2.7-0.2-4.1-0.4-4.4-0.8c-0.2-0.3-1.4-0.7-2.7-0.9c-1.3-0.2-2.6-0.6-3-0.9c-0.4-0.3-1.5-0.7-2.4-0.9c-0.9-0.2-1.8-0.5-1.9-0.8
		c-0.1-0.3-0.9-0.7-1.8-1c-0.9-0.2-1.7-0.7-1.8-1c-0.1-0.3-0.6-0.6-1-0.6c-0.4,0-1.2-0.4-1.7-1c-0.5-0.5-1.3-1-1.7-1
		c-0.4,0-0.9-0.4-1.1-0.8s-0.6-0.8-0.9-0.8c-0.3,0-0.8-0.4-1.3-0.8c-0.4-0.4-2.7-2.6-4.9-4.8s-4.1-4.2-4.1-4.4
		c0-0.2-0.3-0.4-0.6-0.4c-0.3,0-0.7-0.4-0.8-1c-0.1-0.5-0.6-1.1-1-1.2c-0.4-0.1-0.8-0.6-0.8-1s-0.4-1.1-0.8-1.6
		c-0.4-0.4-0.9-1.2-1-1.8c-0.1-0.5-0.5-1.1-0.8-1.2c-0.3-0.1-0.7-0.8-0.8-1.5c-0.2-0.7-0.6-1.6-1-2c-0.4-0.4-0.8-1.2-0.8-1.8
		c0-0.6-0.4-1.5-0.8-2c-0.5-0.5-0.9-1.7-1.1-3.1c-0.1-1.2-0.5-2.5-0.8-2.8c-0.4-0.4-0.7-2.1-0.9-4.8c-0.2-2.8-0.6-4.5-1-4.9
		c-0.9-1-0.9-162.4,0-163.8c0.4-0.6,0.7-2.5,0.9-5.6c0.2-3.3,0.5-4.8,0.9-5.2c0.4-0.4,0.7-1.8,0.9-3.3c0.2-1.6,0.5-2.9,0.9-3.1
		c0.3-0.2,0.7-1.2,0.8-2.2c0.1-1,0.6-2.1,1-2.5c0.4-0.4,0.7-1.2,0.7-1.7c0-0.5,0.4-1.4,0.8-1.8c0.4-0.4,0.9-1.4,1.1-2
		c0.1-0.7,0.6-1.4,1-1.6c0.4-0.2,0.7-0.7,0.7-1.2c0-0.4,0.4-1.3,1-1.8c0.5-0.6,1-1.2,1-1.4c0-0.7,7.7-8.7,10-10.4
		c0.7-0.5,1.7-1.3,2.1-1.7c0.4-0.4,1.4-1,2.1-1.3c0.8-0.3,1.4-0.8,1.4-1c0-0.2,0.5-0.5,1.1-0.6c0.6-0.1,1.5-0.6,2.1-1
		c0.5-0.4,1.4-0.8,1.9-0.8s1.2-0.4,1.6-0.8c0.5-0.5,1.2-0.8,2.2-0.8c1.1,0,1.7-0.2,2.1-0.8c0.4-0.6,1.2-0.8,3.7-1
		c2.3-0.2,3.5-0.5,4.4-1.1l1.2-0.9h35.3h35.3l0.7,0.9c0.4,0.5,1.2,0.9,1.7,0.9c0.6,0,1.5,0.5,2.2,1c0.7,0.6,1.4,1,1.6,1
		c0.2,0,0.8,0.5,1.2,1c0.5,0.6,1.1,1,1.5,1c0.3,0,0.6,0.3,0.6,0.6c0,0.3,0.3,0.8,0.7,1c0.4,0.2,1,0.9,1.2,1.6c0.3,0.7,0.7,1.3,1,1.4
		c0.3,0.1,0.6,0.7,0.8,1.4c0.1,0.7,0.6,1.5,1,1.9c0.5,0.5,0.8,1.2,0.8,2.2c0,0.8,0.4,2.4,0.8,3.6c0.6,1.4,0.8,3,0.8,5.2
		c0,2.4-0.2,3.5-0.8,4.7c-0.5,0.9-0.8,2.2-0.7,3.1c0,1.1,0.1,1.3,0.2,0.6c0.1-0.5,0.5-1.4,0.8-2c1-1.5,1-12.2,0-13.8
		c-0.4-0.6-0.7-1.5-0.7-2c0-0.5-0.3-1.4-0.6-1.9s-0.9-1.6-1.2-2.4c-0.8-1.6-0.9-1.8-4.1-5c-2.5-2.5-4.5-3.9-6.1-4.4
		c-0.5-0.2-1.2-0.5-1.6-0.9c-0.4-0.3-1.8-0.7-3.2-1c-1.4-0.2-3.3-0.6-4.1-0.8C124,125,74.9,125.2,68.4,125.9 M272.2,126
		c-0.9,0.2-2.2,0.3-3,0.4s-2.2,0.5-3.3,1c-1,0.5-2.1,1-2.3,1c-0.8,0-5.3,3.5-7,5.5c-0.2,0.3-0.7,0.9-1.1,1.3
		c-0.7,0.8-1.6,2.3-2.5,4.4c-0.3,0.8-0.9,1.9-1.2,2.5c-0.8,1.5-0.8,2.6,0,1.8c0.8-0.8,1.4-2.4,1.4-3.7c0-0.5,0.3-1.1,0.8-1.4
		c0.4-0.2,0.9-1,1-1.6c0.1-0.7,0.4-1.2,0.6-1.2c0.2,0,0.6-0.4,0.8-1c0.2-0.5,0.8-1.1,1.2-1.2c0.4-0.1,0.7-0.5,0.7-0.7s0.5-0.7,1-1
		c0.6-0.3,1-0.7,1-1.1c0-0.3,0.4-0.6,0.8-0.6c0.4,0,1.2-0.4,1.6-0.8c0.4-0.4,1.5-1,2.5-1.2c0.9-0.2,1.8-0.7,2-1
		c0.3-0.6,4-0.6,34.6-0.7c22.7,0,33.1-0.2,30.7-0.4C327.8,125.8,274.3,125.6,272.2,126 M337.8,127.6c0.9,0.4,2.4,0.7,3.4,0.7l1.8,0
		l-1.6-0.4c-0.9-0.2-1.8-0.5-2-0.8c-0.2-0.2-1-0.4-1.8-0.4l-1.4,0L337.8,127.6 M344.1,128.7c0.6,0.1,1.1,0.3,1.1,0.5
		c0,0.5,1.9,1.2,3.3,1.2c0.7,0,1.7,0.3,2.2,0.8c0.5,0.4,1.7,0.9,2.5,1c0.9,0.1,1.6,0.5,1.7,0.8c0.1,0.3,0.9,0.7,1.8,1
		c0.9,0.3,1.7,0.7,1.8,1.1c0.1,0.3,0.6,0.6,1,0.6c0.4,0,1,0.4,1.2,0.8c0.2,0.4,0.9,0.9,1.5,1.1c0.6,0.1,1.3,0.6,1.6,1
		c0.3,0.4,0.8,0.7,1.1,0.7c0.3,0,0.7,0.4,0.8,0.8c0.1,0.4,0.4,0.8,0.7,0.8c0.2,0,1.8,1.5,3.5,3.3c4.2,4.4,4.3,4.5,4.5,5.4
		c0.1,0.4,0.6,1.1,1,1.5c0.4,0.4,0.8,0.9,0.8,1.2c0,0.3,0.3,0.8,0.7,1c0.4,0.3,0.9,1.1,1,1.8c0.2,0.7,0.6,1.5,1.1,1.7
		c0.5,0.3,0.8,0.8,0.8,1.6c0,1.5,0.4,2.4,1,2.4c0.3,0,0.6,0.8,0.8,2.1c0.1,1.2,0.5,2.3,0.8,2.5c0.3,0.2,0.6,0.7,0.8,1
		c0.2,0.4,0.2,0.4,0.3-0.2c0-0.4-0.2-1.2-0.5-1.6c-0.3-0.4-0.7-1.4-0.9-2.2c-0.2-0.8-0.6-2-1-2.8c-0.4-0.8-0.9-1.9-1.2-2.4
		s-0.9-1.7-1.4-2.6c-0.5-0.9-1.2-2.1-1.6-2.7c-3-5.3-9.6-12-15.7-15.9c-1.4-0.9-2.6-1.8-2.7-2c-0.1-0.2-0.6-0.4-1-0.4
		c-0.4,0-1.2-0.3-1.7-0.8c-0.5-0.4-1.5-0.9-2.2-1.1c-0.6-0.2-1.4-0.5-1.8-0.8c-0.3-0.3-1.5-0.7-2.6-1c-1.1-0.3-2.5-0.7-3.1-1.1
		c-0.6-0.3-1.6-0.6-2.2-0.5l-1.1,0.1L344.1,128.7 M251,150.6c0,3.3,0.1,4.6,0.1,2.9c0.1-1.7,0.1-4.4,0-6
		C251,145.9,251,147.3,251,150.6 M251.2,157.4c0,1,1.9,5.8,2.6,6.7c0.3,0.3,0.6,0.8,0.6,1c0,0.2,0.5,0.8,1,1.3c0.6,0.5,1,1.1,1,1.2
		c0,0.3,2.3,2.8,2.7,2.8c0.1,0,0.7,0.4,1.3,0.8c2,1.6,4.1,2.8,5.2,3c0.6,0.1,1.4,0.5,1.9,0.8c1.3,0.9,2.1,0.7,1.2-0.2
		c-0.4-0.4-1.5-0.9-2.6-1.1c-1.1-0.2-2.1-0.6-2.4-1c-0.3-0.4-0.8-0.7-1-0.7c-0.3,0-1-0.4-1.7-1c-0.6-0.5-1.4-1-1.6-1
		c-0.3,0-0.6-0.4-0.7-0.8c-0.1-0.4-0.6-0.9-1-1c-0.4-0.1-0.8-0.5-0.8-0.7c0-0.3-0.5-1-1-1.6c-0.6-0.6-1-1.4-1-1.7
		c0-0.3-0.3-0.8-0.7-1c-0.4-0.3-0.9-1.2-1-2.1C252.7,159.2,251.2,156.2,251.2,157.4 M146.8,161.1c0,0.3-0.3,0.5-0.6,0.5
		c-0.4,0-0.7,0.6-0.9,1.6c-0.2,1-0.5,1.6-0.8,1.6c-0.3,0-0.7,0.3-0.8,0.7c-0.4,1-4.3,4.9-4.8,4.9c-0.3,0-0.5,0.2-0.5,0.4
		c0,0.2-0.8,0.8-1.8,1.2c-1,0.4-1.8,0.9-1.8,1.1c0,0.2-0.8,0.5-1.8,0.6c-1.8,0.2-4.7,1.9-3.2,1.9c0.4,0,1.1-0.3,1.5-0.6
		c0.4-0.3,1-0.6,1.4-0.6c2.6,0,12.9-8.2,12.9-10.3c0-0.4,0.4-1.1,0.8-1.6c0.5-0.5,0.7-1.1,0.6-1.4
		C146.9,160.7,146.9,160.7,146.8,161.1 M383.6,169c0,1.4,0.2,2.3,0.7,3c0.6,0.7,0.8,2,1,5.6c0.2,3.3,0.5,5.1,1.1,6.4
		c1,2.3,1.1,0.7,0.2-3.1c-0.3-1.3-0.8-4.1-1-6.2c-0.2-2.1-0.6-4-0.8-4.2c-0.2-0.3-0.6-1.2-0.8-2l-0.4-1.6L383.6,169 M122.5,176.3
		c-0.4,0.4-1.6,0.9-2.7,1c-1.1,0.1-2.1,0.5-2.3,0.9c-0.2,0.3-1.1,0.7-1.9,0.9c-1,0.2-1.8,0.6-2,1c-0.2,0.4-0.8,0.7-1.3,0.7
		c-0.5,0-1.3,0.4-1.8,1c-0.5,0.6-1.1,1-1.5,1c-0.3,0-0.8,0.4-1,0.8c-0.2,0.4-0.6,0.8-0.9,0.8c-1.3,0-9.9,8.5-9.9,9.8
		c0,0.2-0.4,0.6-0.8,0.9c-0.4,0.3-0.8,0.7-0.8,0.9c0,0.2-0.4,1-1,1.6c-0.5,0.7-1,1.5-1,1.9c0,0.4-0.4,0.9-0.8,1.2
		c-0.5,0.3-0.8,0.9-0.8,1.7c0,0.6-0.3,1.5-0.7,1.9c-0.4,0.4-0.9,1.5-1,2.4c-0.1,0.9-0.6,2.1-1.1,2.5c-0.6,0.6-0.8,1.3-0.8,3.4
		c0,1.7-0.2,3-0.7,3.9c-0.6,1.1-0.7,2.3-0.7,7.5c0,5.3,0.1,6.4,0.7,7.2c0.5,0.7,0.7,1.8,0.7,3.8c0,2.2,0.2,3.1,0.7,3.8
		c0.4,0.5,0.9,1.9,1,3.1c0.2,1.2,0.5,2.2,0.8,2.4c0.3,0.2,0.7,1.1,0.9,2.1c0.2,1,0.7,1.9,1,2.1c0.3,0.2,0.6,0.7,0.6,1.1
		s0.4,1.1,0.8,1.6c0.4,0.4,0.9,1.3,1,2c0.1,0.6,0.6,1.3,0.9,1.4c0.4,0.1,0.8,0.7,1,1.2c0.1,0.5,0.5,1,0.8,1s0.7,0.4,0.8,1
		s4.3,5,9.2,10c5,5,9,9.2,9,9.4s0.3,0.4,0.6,0.4c0.3,0,0.8,0.4,1.1,1c0.3,0.5,0.6,1,0.7,1c0.5,0,2.8,2.3,2.8,2.7
		c0,0.2,0.4,0.5,0.8,0.7c0.4,0.1,0.9,0.6,1,1c0.1,0.4,0.5,0.8,0.8,0.8s0.7,0.4,0.8,0.8c0.1,0.4,0.6,0.9,1,1c0.4,0.1,0.8,0.5,0.8,0.8
		c0,0.3,0.5,0.8,1,1c0.5,0.2,1,0.6,1,1c0,0.3,0.4,0.7,0.8,0.8c0.4,0.1,0.8,0.5,0.8,0.8c0,0.3,0.4,0.8,1,1c0.6,0.3,1,0.7,1,1
		c0,0.3,0.2,0.5,0.5,0.5c0.3,0,0.7,0.4,1,1c0.3,0.5,0.7,1,1.1,1c0.3,0,0.6,0.3,0.6,0.6c0,0.3,0.5,0.8,1,1.1c0.6,0.3,1,0.6,1,0.7
		c0,0.4,2.3,2.8,2.7,2.8c0.2,0,0.6,0.5,0.8,1c0.3,0.6,0.7,1,1,1c0.3,0,0.7,0.4,0.8,0.8c0.1,0.4,0.5,0.8,0.8,0.8c0.3,0,0.8,0.5,1,1
		c0.3,0.6,0.7,1,1.1,1c0.3,0,0.6,0.2,0.6,0.4c0,0.2,1.2,1.6,2.6,3c1.4,1.4,2.6,2.7,2.6,2.9c0,0.2,0.4,0.5,0.8,0.7
		c0.4,0.1,0.9,0.6,1,1c0.1,0.4,0.5,0.8,0.9,0.8c0.3,0,0.7,0.4,0.8,0.8c0.1,0.4,0.5,0.8,0.8,0.8c0.3,0,0.7,0.4,0.8,0.8
		c0.1,0.5,0.6,1,1.2,1.2c0.5,0.2,0.9,0.6,0.9,0.9c0,0.3,0.4,0.7,0.8,0.8c0.4,0.1,0.9,0.6,1,1c0.1,0.4,0.6,0.8,1,0.9
		c0.4,0.1,0.8,0.5,0.8,0.8c0,0.4,0.2,0.6,0.4,0.6c0.2,0,1.2,0.8,2.2,1.8c1,1,1.9,1.8,2,1.8c0.1,0,0.7,0.4,1.2,1c0.6,0.5,1.3,1,1.6,1
		s0.6,0.2,0.6,0.4c0,0.2,0.6,0.7,1.4,1c0.8,0.3,1.5,0.8,1.6,1.1c0.1,0.3,0.8,0.7,1.5,0.8c0.7,0.1,1.6,0.6,2,1
		c0.4,0.5,1.2,0.8,1.8,0.8c0.6,0,1.4,0.3,1.8,0.8c0.4,0.5,1.5,0.9,2.9,1c1.4,0.2,2.4,0.5,2.7,0.9c0.4,0.5,1.3,0.7,4.4,0.7l3.9,0.1
		l-3.1-0.3c-1.7-0.2-3.6-0.6-4.2-0.9c-0.6-0.3-1.9-0.7-2.8-0.8c-0.9-0.1-2.4-0.6-3.2-1.1c-0.8-0.4-1.8-0.8-2.1-0.8
		c-0.4,0-1.1-0.3-1.6-0.8c-0.5-0.4-1.5-0.9-2.1-1c-0.6-0.1-1.1-0.4-1.1-0.6c0-0.2-0.5-0.5-1.1-0.9c-1.3-0.7-3.5-2-4.9-3.1
		c-1.7-1.2-54.8-54.6-65.4-65.8c-2.4-2.5-4.9-5.3-5.4-6.1c-0.6-0.8-1.2-1.7-1.5-2c-0.5-0.5-1.5-2.5-2.9-5.3c-0.4-0.9-1-1.8-1.2-1.9
		c-0.2-0.1-0.4-0.6-0.4-1.1c0-0.4-0.5-1.6-1-2.7c-0.6-1-1-2.4-1-3.1s-0.3-1.6-0.6-2c-0.5-0.7-1.2-5.1-2.1-12.6
		c-0.3-2.2,0.9-11.7,1.7-14.3c0.3-1,0.8-2.5,1-3.4c0.2-0.9,0.7-2.2,1.2-2.8c0.4-0.7,0.8-1.6,0.8-2.1c0-0.5,0.2-0.9,0.4-1.1
		c0.2-0.1,0.8-1,1.3-1.9c1.7-3.1,2.5-4.3,4.3-6.4c1.5-1.8,6.9-7.2,8.1-8.1c0.6-0.4,1.3-1,1.6-1.2c1-0.9,4.2-2.8,5.9-3.6
		c4.6-2.2,6.5-2.9,7.3-2.9c0.5,0,1.3-0.3,1.8-0.7c0.5-0.4,2-0.8,3.2-0.9l2.2-0.3l-2.7-0.1C123.8,175.6,123.1,175.8,122.5,176.3
		 M271.8,176c1.1,0.2,2.4,0.5,2.9,0.8c0.5,0.3,1.9,0.6,3.1,0.8c1.2,0.2,2.5,0.6,2.9,1c0.4,0.3,1.2,0.7,2,0.9
		c0.7,0.1,1.4,0.4,1.5,0.6c0.1,0.2,1,0.7,1.9,1.1c0.9,0.4,2.1,1.1,2.7,1.5c1.2,0.8,3.8,2.6,5.1,3.6c2.8,2,10.4,10.4,10.4,11.5
		c0,0.3,0.4,0.8,0.8,1.2c0.4,0.4,0.9,1.2,1,1.8c0.1,0.6,0.5,1.3,0.8,1.6c0.3,0.3,0.6,0.7,0.6,1c0,0.3,0.4,1.3,1,2.4
		c0.5,1,1,2.2,1,2.7c0,0.4,0.3,1.5,0.7,2.3c0.4,0.8,0.8,2.3,0.9,3.3c0.2,1.8,0.3,1.8,0.3-0.6c0.1-1.9-0.1-2.6-0.7-3.4
		c-0.4-0.5-0.8-1.5-0.8-2.2c0-0.7-0.3-1.7-0.8-2.3c-0.4-0.5-1-1.7-1.2-2.7c-0.3-0.9-0.7-1.8-1-1.9c-0.3-0.1-0.6-0.7-0.6-1.2
		c0-0.6-0.3-1.1-0.8-1.2c-0.4-0.1-0.9-0.7-1-1.3c-0.1-0.6-1-1.9-1.8-2.8c-0.9-0.9-1.6-1.8-1.6-2c0-0.2-0.5-0.6-1-1
		c-0.6-0.4-1-0.9-1-1.2c0-0.3-0.4-0.6-0.8-0.6s-0.8-0.2-0.8-0.5c0-0.3-0.7-1-1.5-1.7c-0.8-0.7-1.9-1.6-2.3-2.1
		c-0.5-0.5-1.1-0.9-1.3-0.9c-0.2,0-0.6-0.3-0.8-0.8c-0.2-0.4-1-0.9-1.8-1c-0.8-0.2-1.4-0.5-1.4-0.8c0-0.3-0.5-0.7-1.1-0.8
		c-0.6-0.1-1.5-0.6-1.9-1c-0.4-0.4-1.4-0.8-2.1-1c-0.7-0.2-1.7-0.6-2.1-1c-0.5-0.5-1.3-0.8-2.3-0.8c-0.8,0-2-0.4-2.7-0.8
		c-0.9-0.6-1.8-0.8-3.8-0.7l-2.6,0L271.8,176 M311.8,217.4c0.1,0.9,0.4,3.2,0.6,5.1c0.4,2.6,0.4,4.2,0,6.4c-0.5,3.6-0.9,6.8-0.5,5.7
		c0.1-0.4,0.5-1.1,0.8-1.5c0.9-1,0.9-14.9,0-15.6c-0.3-0.3-0.7-0.7-0.8-1.1C311.7,216.1,311.7,216.5,311.8,217.4 M311.2,237
		c0,0.8-0.4,2.1-0.8,2.9c-0.4,0.8-0.8,1.9-0.8,2.3c0,0.4-0.5,1.7-1,2.7c-0.6,1-1,2.1-1,2.5c0,0.3-0.3,0.8-0.6,1.2
		c-0.3,0.3-0.9,1.2-1.2,1.9c-0.9,2-1.9,3.7-2.5,4.4c-0.3,0.3-1.4,1.7-2.6,3.2c-3.4,4.2-68.3,68.8-70.9,70.6c-3.1,2.1-5,3.2-6.7,4
		c-0.8,0.4-1.7,0.9-2,1.2c-0.3,0.3-1.2,0.6-1.9,0.8c-0.7,0.1-1.9,0.6-2.8,1c-0.8,0.4-2.1,0.8-2.8,0.8c-0.7,0-1.6,0.3-2.1,0.6
		c-0.6,0.4-2.3,0.8-4.6,0.9l-3.7,0.3l4,0.1c3.4,0,4.2-0.1,5-0.7c0.5-0.4,2-0.9,3.2-1c1.4-0.2,2.5-0.6,2.9-1c0.4-0.4,1.2-0.8,1.8-0.8
		c0.6,0,1.4-0.3,1.8-0.8c0.4-0.4,1.2-0.9,1.7-1c0.6-0.2,1.4-0.6,1.8-1s1.2-0.8,1.7-1c0.5-0.2,0.9-0.5,0.9-0.8s0.4-0.6,0.8-0.6
		c0.5,0,1.2-0.5,1.7-1c0.5-0.6,1-1,1.2-1c0.1,0,1.9-1.6,3.9-3.6c2-2,3.8-3.6,4-3.6s0.4-0.2,0.4-0.4c0-0.5,7.9-8.4,8.4-8.4
		c0.2,0,0.5-0.4,0.6-0.8c0.1-0.4,0.6-0.9,1-1c0.4-0.1,0.8-0.4,0.8-0.6c0-0.5,4.3-4.8,4.8-4.8c0.2,0,0.4-0.2,0.4-0.4
		c0-0.5,7.9-8.4,8.4-8.4c0.2,0,0.5-0.4,0.6-0.8c0.1-0.4,0.6-0.9,1-1c0.4-0.1,0.8-0.4,0.8-0.6c0-0.5,4.3-4.8,4.8-4.8
		c0.2,0,0.4-0.2,0.4-0.4c0-0.5,7.9-8.4,8.4-8.4c0.2,0,0.5-0.4,0.6-0.8c0.1-0.4,0.6-0.9,1-1c0.4-0.1,0.8-0.4,0.8-0.6
		c0-0.5,4.3-4.8,4.8-4.8c0.2,0,0.4-0.2,0.4-0.4c0-0.5,7.9-8.4,8.4-8.4c0.2,0,0.4-0.2,0.4-0.4c0-0.2,0.9-1.3,1.9-2.4
		c3-3.1,5.3-6.1,5.3-6.8c0-0.2,0.5-0.8,1-1.3c0.6-0.5,1-1.3,1-1.9c0-0.6,0.3-1.2,0.8-1.5c0.4-0.3,0.9-1.1,1.1-2
		c0.2-0.8,0.6-1.8,1-2.2c0.4-0.4,0.7-1.3,0.7-2.1c0-0.8,0.3-1.7,0.8-2.3c0.7-0.8,1.2-5.2,0.6-5.2C311.3,235.6,311.2,236.2,311.2,237
		 M197.5,338.7c1.2,0.1,3,0.1,4,0c1-0.1,0.1-0.1-2.1-0.1C197.2,338.5,196.4,338.6,197.5,338.7 M386.9,342.2c0,0.9-0.3,2.2-0.7,2.9
		c-0.3,0.7-0.7,2.9-0.8,5.2c-0.2,2.9-0.4,4.1-0.9,4.4c-0.4,0.3-0.7,1.5-0.9,2.9c-0.2,1.6-0.5,2.6-1.1,3.2c-0.5,0.5-0.8,1.3-0.8,2
		c0,0.6-0.4,1.4-0.8,1.8c-0.4,0.4-0.8,1.1-0.8,1.7c0,0.5-0.3,1.3-0.8,1.7c-0.4,0.4-0.9,1.3-1.1,1.9c-0.2,0.7-0.6,1.4-1,1.7
		c-0.4,0.3-0.7,0.7-0.7,1c0,0.3-0.5,0.9-1,1.4c-0.5,0.5-1,1.3-1,1.7s-0.3,0.8-0.6,0.8c-0.3,0-0.8,0.4-1,0.9c-0.2,0.5-0.6,1.1-1,1.2
		c-0.3,0.1-0.6,0.5-0.6,0.8c0,0.3-0.4,0.7-0.8,0.8c-0.4,0.1-0.8,0.5-0.8,0.8c0,0.3-0.5,0.8-1,1c-0.6,0.2-1,0.7-1,1
		c0,0.3-0.3,0.6-0.6,0.6c-0.3,0-0.8,0.4-1.1,0.8c-0.3,0.4-0.7,0.8-1,0.8s-0.7,0.4-0.9,0.8s-0.7,0.8-1,0.8c-0.3,0-1,0.4-1.5,1
		s-1.2,1-1.4,1c-0.3,0-0.7,0.4-1,0.8c-0.3,0.4-1.1,0.9-1.8,1.1s-1.5,0.6-1.7,1c-0.2,0.4-0.8,0.7-1.3,0.7c-0.5,0-1.4,0.3-1.9,0.8
		c-0.5,0.4-1.6,0.9-2.5,1c-0.8,0.2-1.6,0.5-1.8,0.9c-0.2,0.3-1.3,0.7-2.7,0.9c-1.3,0.2-2.5,0.6-2.8,0.9c-0.3,0.4-1.7,0.7-5,0.9
		c-5.2,0.3-7.6,0.8-7.6,1.7c0,0.8,3.2,0.8,3.8,0c0.3-0.4,1.8-0.7,4.4-1c2.3-0.3,4.6-0.8,5.5-1.2c0.8-0.4,2-0.8,2.6-0.8
		c0.6,0,1.6-0.4,2.1-0.8c0.5-0.4,1.8-1,2.7-1.2c1-0.2,1.8-0.6,1.9-0.8c0.1-0.2,0.8-0.6,1.6-0.9c0.8-0.3,1.8-0.7,2.2-1.1
		c0.4-0.3,1.1-0.8,1.5-1c4.1-2.3,13-10.1,15.8-14c0.4-0.6,1.1-1.4,1.5-1.8c0.4-0.4,1-1.3,1.3-1.9c0.4-0.6,1.1-1.8,1.6-2.7
		c1.8-3.1,3.4-6.2,3.6-7.4c0.1-0.6,0.5-1.4,0.8-1.6c0.3-0.2,0.7-1.2,0.8-2.1c0.2-0.9,0.5-2.2,0.9-2.8c0.3-0.6,0.8-2.4,1-4
		c0.2-1.6,0.7-3.8,1-5c0.3-1.2,0.5-3.2,0.5-4.4C387,341,386.9,340.9,386.9,342.2"/>
	<path id="path3" class="st3" d="M193.2,0.6c0,0.6-1.2,1-2.5,1c-1.9,0-11.5,7.7-11.5,9.2c0,0.2-0.4,0.8-0.8,1.3
		c-0.4,0.5-0.8,1.1-0.8,1.4c0,0.3-0.4,1.1-0.8,1.8c-1.8,2.9-1.8,0.5-2,112.4c-0.1,58.5-0.3,106.4-0.3,106.5
		c-0.5,0.5-1.3-0.2-1.8-1.4c-0.4-0.8-1.2-2.4-1.8-3.5c-0.6-1.1-1.5-2.5-1.8-3.2c-0.4-0.7-1.1-1.9-1.6-2.8c-0.5-0.9-1.4-2.3-1.8-3.2
		c-0.5-0.9-1.2-2.3-1.7-3.2c-0.9-1.8-10.9-11.9-12.7-12.9c-6-3.3-9.1-4.2-14.2-4.2c-5.1,0-8.6,1-14,4.1c-1.5,0.8-3.8,3-3.8,3.6
		c0,0.2-0.8,1.4-1.8,2.6c-1,1.2-1.8,2.4-1.8,2.5c0,0.2-0.4,1.1-0.9,2.1c-0.5,1-1.1,2.6-1.2,3.6c-0.2,1-0.5,2-0.7,2.3
		c-1,1.2,0.3,12.5,1.7,14.6c0.4,0.5,0.8,1.4,0.9,1.9c0.2,0.5,0.6,1.2,0.9,1.6c0.3,0.4,1.4,1.7,2.5,3.1c3,3.7,64.4,64.7,66.6,66.2
		c2.5,1.7,6.2,3.6,7.1,3.6c0.4,0,1.3,0.3,2.1,0.6c1.9,0.8,9.6,0.8,11.1,0c0.5-0.3,1.4-0.6,1.8-0.6c0.5,0,1.7-0.5,2.8-1
		c1.1-0.5,2.1-1,2.3-1c1.1,0,8.9-7.5,37-35.6c30.3-30.3,34.2-34.4,35.5-37.3c0.3-0.7,0.7-1.5,0.9-1.9c1.6-2.7,2.4-10.4,1.4-14.1
		c-0.4-1.4-0.8-3.1-0.9-3.7c-0.1-0.7-0.4-1.5-0.7-1.8c-0.3-0.3-0.7-1.3-1-2.1c-0.3-0.8-0.6-1.5-0.8-1.5c-0.2,0-0.6-0.5-0.9-1.1
		c-0.3-0.6-1.4-1.9-2.5-2.9c-1-1-2.2-2.1-2.5-2.5c-0.4-0.4-0.8-0.7-1-0.7c-0.2,0-0.9-0.4-1.5-1c-0.7-0.5-1.6-1-2-1s-1.2-0.3-1.6-0.7
		c-1.1-1-9.2-2.3-11.1-1.8c-0.8,0.2-2.5,0.5-3.9,0.6c-1.3,0.1-2.9,0.6-3.6,1c-0.7,0.4-1.6,0.8-2.1,1c-2.9,0.9-13.2,10.8-15.2,14.6
		c-2.5,4.7-6.1,11.2-6.5,11.4c-0.2,0.1-0.4,0.6-0.4,0.9c0,0.4-0.4,1-0.8,1.4c-0.4,0.4-0.9,1.3-1,2.1c-0.2,1-0.4,1.3-0.9,1.2
		c-0.6-0.1-0.7-8.5-0.9-105.5c-0.2-121.7,0.3-108.9-4.7-117.9c-1.9-3.4-9.6-9.3-12.1-9.3c-0.4,0-1.1-0.4-1.6-0.8
		c-0.8-0.8-2.4-1.1-2.4-0.4c0,0.7,1,1.2,3.3,1.6c1.2,0.3,2.5,0.7,2.7,1c0.3,0.3,0.7,0.6,1.1,0.6c1.4,0,8.5,6.6,8.5,7.9
		c0,0.2,0.4,0.7,0.8,1.1c0.4,0.4,0.8,0.9,0.8,1.2c0,0.3,0.4,1.2,0.8,2c1.6,3.1,1.6,5,1.6,114.1c0,103.9,0,107.9,1.1,106.2
		c0.1-0.2,0.6-0.6,1.1-0.8c0.5-0.2,1-1.2,1.3-2.1c0.3-0.9,0.6-1.6,0.8-1.6c0.2,0,0.6-0.7,1-1.5c0.6-1.5,0.8-1.8,2.6-4.5
		c0.5-0.8,0.9-1.7,0.9-2c0-0.3,0.4-0.9,0.8-1.3c0.4-0.4,1-1.3,1.2-2.1c0.2-0.7,0.6-1.4,0.8-1.4c0.2,0,0.4-0.2,0.4-0.5
		c0-1.3,9.2-11.9,10.3-11.9c0.2,0,0.5-0.3,0.6-0.6c0.1-0.3,0.8-0.9,1.5-1.2c0.7-0.3,1.8-0.9,2.3-1.2c4.6-2.5,4.4-2.4,11.3-2.4
		c5.8,0,6.7,0.1,8.3,0.9c1,0.5,2.4,1.1,3.1,1.3c0.7,0.3,1.3,0.6,1.3,0.8c0,0.2,0.3,0.4,0.6,0.4c1.2,0,6.8,5.8,8.2,8.6
		c1.5,2.9,1.9,4.1,3.2,10.4c0.2,0.9,0.2,2.4,0,3.4c-0.2,1-0.6,3.1-0.9,4.7c-0.3,1.6-0.8,3.2-1.2,3.6c-0.4,0.4-0.7,1-0.7,1.4
		c0,1.6-60.9,63.7-68.8,70.1c-6.9,5.6-19,7.5-24.8,3.8c-0.3-0.2-1.2-0.7-1.9-1c-2.9-1.3-5.8-4.1-37.6-35.9
		c-30-29.9-35.7-35.9-35.7-37.5c0-0.3-0.3-0.8-0.6-1.2c-0.5-0.6-1.3-3.8-2.1-8.8c-0.4-2.7,2.1-12,3.9-14.1c0.2-0.2,0.9-1.2,1.5-2
		c2.9-3.9,3.5-4.6,4.6-5.1c0.7-0.3,1.5-0.8,1.9-1.2c0.4-0.4,1-0.7,1.3-0.7c0.3,0,1.3-0.4,2.1-0.8c3.5-1.8,14.6-1.8,17.6,0
		c0.7,0.4,1.5,0.8,1.9,0.8c0.4,0,1,0.3,1.4,0.8c0.4,0.4,1.2,0.9,1.6,1c1.2,0.4,11.8,11,12.6,12.6c0.4,0.7,1.2,2.3,1.8,3.4
		c0.6,1.1,1.5,2.7,1.8,3.5c0.4,0.8,0.8,1.5,1,1.5c0.2,0,0.6,0.7,1,1.5c2.2,5.1,5.1,9.2,6.4,9.3c0.2,0,0.3-48,0.3-106.6
		c0-121.5-0.4-111.2,4-118.5c1.4-2.3,7.4-7.7,8.6-7.7c0.3,0,0.7-0.3,1-0.6s1-0.7,1.7-0.8c3.2-0.6,4.3-1.1,4.3-1.6
		c0-0.4-0.4-0.6-1-0.6C193.6,0,193.2,0.2,193.2,0.6 M67,125.2c-0.4,0.2-2.7,0.5-5,0.8c-2.3,0.3-4.8,0.7-5.6,1s-2.1,0.7-3,0.8
		c-0.9,0.1-2.3,0.6-3.1,1c-0.8,0.4-1.8,0.8-2.1,0.8s-1.7,0.6-3.1,1.4c-1.4,0.8-3.1,1.7-3.9,2c-0.7,0.3-2.2,1.3-3.3,2.1
		c-1.1,0.8-2.6,2-3.4,2.5c-3.4,2.4-9.8,9.5-12,13.4c-0.4,0.7-1.1,1.9-1.6,2.8c-0.5,0.9-1.2,2.1-1.4,2.6c-0.2,0.6-0.8,1.7-1.2,2.5
		c-0.4,0.8-0.8,1.8-0.8,2.2c0,0.4-0.3,1.1-0.6,1.6c-0.3,0.5-0.8,1.9-1.1,3.2c-0.3,1.3-0.7,2.7-1,3.1c-0.2,0.4-0.6,2.2-0.9,4
		c-0.3,1.8-0.7,4.3-1,5.6c-0.8,3.6-0.8,167.8,0,171c0.3,1.2,0.8,3.3,1,4.8c0.3,1.4,0.7,3,1,3.6c0.3,0.6,0.7,1.7,0.8,2.6
		c0.2,0.9,0.5,1.9,0.8,2.2c0.3,0.3,0.6,1.1,0.8,1.8s0.6,1.6,1,2.2c0.4,0.6,0.9,1.6,1.2,2.3s0.7,1.3,0.8,1.3c0.2,0,0.5,0.6,0.8,1.4
		c0.3,0.8,0.6,1.4,0.8,1.4s1.1,1.2,2,2.6c2.6,3.9,12.9,13.8,14.4,13.8c0.2,0,0.6,0.3,0.9,0.6c0.5,0.6,1.2,1,4.6,2.8
		c0.9,0.4,1.6,0.9,1.7,1.1c0.1,0.2,0.9,0.5,1.8,0.7c0.9,0.2,1.9,0.7,2.3,1c0.3,0.3,1.3,0.7,2.2,0.8c0.9,0.2,2.1,0.6,2.8,1
		c0.7,0.4,2.5,0.8,4.1,1c1.9,0.2,3,0.5,3.1,0.8c0.3,0.7,3.1,0.8,2.8,0.1c-0.2-0.6-1.4-0.9-5.7-1.5c-1.7-0.2-3.4-0.6-3.7-0.9
		c-0.3-0.2-1.4-0.6-2.4-0.8c-1-0.2-2.1-0.6-2.5-0.9c-0.3-0.3-1.3-0.7-2.1-0.8c-0.8-0.1-1.8-0.6-2.2-1c-0.4-0.4-1-0.8-1.3-0.8
		c-0.3,0-1.3-0.4-2-0.9c-0.8-0.5-2.4-1.5-3.5-2.3c-1.2-0.7-2.1-1.5-2.1-1.7c0-0.2-0.2-0.3-0.4-0.3c-1.4,0-12.3-11.2-13.7-14
		c-0.2-0.3-0.8-1.4-1.5-2.4c-0.7-1-1.4-2.3-1.6-2.8c-0.2-0.5-0.6-1.3-0.8-1.6c-0.2-0.3-0.5-1-0.7-1.6c-0.2-0.6-0.7-1.5-1-2.2
		s-0.9-2.1-1.2-3.2c-0.3-1.1-0.8-2.7-1.1-3.6c-0.3-0.9-0.6-2.2-0.6-3c0-0.8-0.3-2.3-0.7-3.4c-1-2.9-1.3-164.8-0.3-169.5
		c0.4-1.6,0.8-4.3,1-5.9c0.2-1.6,0.7-3.9,1.2-5.1c0.5-1.2,0.8-2.6,0.8-3.3c0-0.6,0.2-1.3,0.4-1.4c0.2-0.1,0.7-1.3,1-2.5
		c0.4-1.3,0.9-2.6,1.2-2.9s0.6-1.1,0.8-1.7s0.5-1.3,0.8-1.7s0.7-1,0.8-1.6c0.1-0.6,0.5-1.3,0.8-1.5c0.3-0.3,0.8-1,1.2-1.7
		c0.9-1.9,3.4-5.2,6.8-8.8c1.1-1.2,3.3-3.1,5.3-4.6c0.5-0.4,1.3-1,1.7-1.4c0.4-0.4,0.9-0.7,1.1-0.7c0.2,0,0.6-0.3,0.8-0.6
		c0.3-0.3,1.2-0.9,2.1-1.4c0.9-0.5,2-1,2.3-1.2c1.1-0.7,5.1-2.4,5.6-2.4c0.3,0,1.2-0.3,2.1-0.8c3.3-1.5,8.5-2.5,17.8-3.4
		c7.3-0.7,54.6-0.9,57.4-0.2c0.9,0.2,2.7,0.6,4.1,0.8c1.4,0.2,2.8,0.6,3.2,1c0.4,0.3,1.1,0.7,1.6,0.9c1.6,0.5,3.6,1.9,6.1,4.4
		c3.3,3.2,3.4,3.4,4.1,5c0.4,0.8,0.9,1.8,1.2,2.4s0.6,1.4,0.6,1.9c0,0.5,0.3,1.4,0.7,2c1,1.5,1,12.2,0.1,13.7
		c-0.4,0.5-0.8,1.7-0.9,2.6c-0.2,0.9-0.6,2-1.1,2.4c-0.4,0.4-0.8,1-0.8,1.4c0,2.1-10.2,10.3-12.8,10.3c-0.3,0-1,0.3-1.4,0.6
		c-0.5,0.3-2.1,0.7-3.6,0.8c-1.5,0.1-3.4,0.6-4.3,1c-0.8,0.4-1.9,0.8-2.3,0.8c-0.7,0-2.7,0.8-7.2,2.9c-1.7,0.8-4.9,2.8-5.9,3.6
		c-0.3,0.2-1,0.8-1.6,1.2c-1.2,0.9-6.6,6.3-8.1,8.1c-1.8,2.2-2.6,3.4-4.3,6.4c-0.5,0.9-1.1,1.7-1.3,1.9c-0.2,0.1-0.4,0.6-0.4,1.1
		c0,0.5-0.3,1.4-0.8,2.1c-0.4,0.7-1,2-1.2,2.8c-0.2,0.9-0.7,2.4-1,3.4c-0.8,2.6-2,12.1-1.7,14.3c0.9,7.6,1.6,11.9,2.1,12.6
		c0.3,0.5,0.6,1.4,0.6,2s0.4,2.1,1,3.1c0.5,1,1,2.2,1,2.7c0,0.4,0.2,0.9,0.4,1.1c0.2,0.1,0.8,1,1.2,1.9c1.3,2.8,2.4,4.8,2.9,5.3
		c0.3,0.3,0.9,1.2,1.5,2c0.5,0.8,3,3.5,5.4,6.1c10.7,11.2,63.7,64.6,65.4,65.8c1.4,1,3.6,2.4,4.9,3.1c0.6,0.3,1.1,0.7,1.1,0.9
		c0,0.2,0.5,0.4,1.1,0.6c0.6,0.1,1.5,0.6,2.1,1c0.5,0.4,1.3,0.8,1.6,0.8c0.4,0,1.3,0.4,2.1,0.8c0.8,0.4,2.3,0.9,3.2,1.1
		c0.9,0.1,2.2,0.5,2.8,0.8c3.1,1.6,21.3,1.5,23.5,0c0.5-0.4,1.5-0.6,2.1-0.6c0.7,0,1.9-0.4,2.8-0.8c0.8-0.4,2.1-0.9,2.8-1
		c0.7-0.1,1.5-0.5,1.9-0.8c0.3-0.3,1.2-0.8,2-1.2c1.7-0.8,3.5-1.9,6.7-4c2.6-1.8,67.5-66.4,70.9-70.6c1.2-1.4,2.3-2.9,2.6-3.2
		c0.6-0.7,1.6-2.4,2.5-4.4c0.4-0.7,0.9-1.6,1.2-1.9c0.3-0.3,0.6-0.8,0.6-1.2c0-0.3,0.4-1.4,1-2.5c0.5-1,1-2.2,1-2.7
		c0-0.4,0.3-1.3,0.7-2c0.4-0.7,0.9-2.7,1.1-4.6c0.3-1.9,0.7-4.8,1-6.5c0.5-3.2,0.5-3.2-1-13.5c-0.3-1.9-0.8-4.1-1.2-4.9
		c-0.4-0.8-0.7-1.8-0.7-2.3c0-0.4-0.5-1.6-1-2.7c-0.6-1-1-2.1-1-2.4c0-0.3-0.3-0.7-0.6-1c-0.3-0.3-0.7-1-0.8-1.6
		c-0.1-0.6-0.6-1.4-1-1.8c-0.4-0.4-0.8-0.9-0.8-1.2c0-1.1-7.7-9.5-10.4-11.5c-1.4-1-3.9-2.8-5.1-3.6c-0.6-0.4-1.8-1.1-2.7-1.5
		c-0.9-0.4-1.8-1-1.9-1.1c-0.1-0.2-0.8-0.5-1.5-0.6c-0.7-0.1-1.6-0.5-2-0.9c-0.4-0.3-1.6-0.8-2.8-1c-1.2-0.2-2.8-0.6-3.6-0.9
		c-0.8-0.3-2.5-0.7-3.8-0.8c-1.3-0.1-2.8-0.5-3.2-0.8s-1.3-0.6-1.9-0.8c-1.1-0.3-3.2-1.5-5.2-3c-0.6-0.5-1.2-0.8-1.3-0.8
		c-0.3,0-2.7-2.4-2.7-2.8c0-0.2-0.4-0.7-1-1.2c-0.5-0.5-1-1.1-1-1.3c0-0.2-0.3-0.7-0.6-1c-2.7-3.1-4.2-18.3-2.2-21.8
		c0.4-0.7,1-1.8,1.3-2.6c0.9-2.1,1.8-3.6,2.5-4.4c0.4-0.4,0.9-1,1.1-1.3c1.7-2,6.1-5.5,7-5.5c0.2,0,1.2-0.4,2.3-1
		c3-1.5,5.8-1.6,34.3-1.6c27.5,0,37.3,0.4,39.6,1.6c0.6,0.3,2.1,0.7,3.3,0.8s2.7,0.5,3.3,0.8c0.6,0.3,1.9,0.7,3,1
		c1.1,0.3,2.2,0.7,2.6,1c0.3,0.3,1.1,0.6,1.8,0.8c0.6,0.2,1.6,0.6,2.2,1.1c0.5,0.4,1.3,0.8,1.7,0.8c0.4,0,0.8,0.2,1,0.4
		c0.1,0.2,1.4,1.1,2.7,2c6,3.9,12.7,10.6,15.7,15.9c0.3,0.6,1.1,1.8,1.6,2.7c0.5,0.9,1.2,2,1.4,2.6s0.8,1.6,1.2,2.4
		c0.4,0.8,0.8,2,1,2.8c0.2,0.8,0.5,1.6,0.7,1.9c0.2,0.3,0.7,1.7,1,3.2c0.3,1.5,0.7,2.9,0.9,3.1c0.2,0.3,0.6,2.2,0.8,4.2
		c0.2,2.1,0.7,4.8,1,6.2c0.7,3,0.9,163.7,0.2,165.7c-0.2,0.6-0.7,2.8-1,4.8c-0.3,2-0.8,4.2-1.1,4.8c-0.3,0.6-0.7,1.9-0.9,2.8
		c-0.2,0.9-0.5,1.9-0.8,2.1c-0.3,0.2-0.7,1-0.8,1.6c-0.3,1.2-1.8,4.3-3.6,7.4c-0.5,0.9-1.2,2.1-1.6,2.7c-0.4,0.6-0.9,1.5-1.3,1.9
		c-0.4,0.4-1,1.2-1.5,1.8c-2.8,3.9-11.7,11.7-15.8,14c-0.4,0.2-1.1,0.7-1.5,1c-0.4,0.3-1.4,0.8-2.2,1.1c-0.8,0.3-1.5,0.7-1.6,0.9
		c-0.1,0.2-0.9,0.6-1.9,0.8c-1,0.2-2.2,0.7-2.7,1.2c-0.5,0.4-1.5,0.8-2.1,0.8c-0.6,0-1.8,0.3-2.6,0.8c-0.9,0.4-3.2,1-5.5,1.2
		c-4.1,0.5-4.6,0.6-4.6,1.3c0,0.6,3.5,0.5,3.7-0.2c0.1-0.4,1.2-0.7,3.1-0.8c1.6-0.2,3.5-0.6,4.1-1c0.7-0.4,1.9-0.8,2.7-0.9
		c0.8-0.1,2-0.6,2.6-1.1c0.6-0.5,1.4-0.8,1.8-0.8c1.5,0,8.8-4.3,13.4-8c1.8-1.5,4.6-4,6-5.6c0.7-0.8,1.6-1.6,1.9-2
		c0.4-0.3,0.7-0.8,0.7-0.9c0-0.3,0.7-1.1,2.8-3.3c0.4-0.4,0.8-1,0.8-1.3c0-0.3,0.3-0.7,0.6-1c0.3-0.3,1.3-2,2.2-3.8
		c0.9-1.8,1.8-3.3,2-3.5c0.2-0.1,0.4-0.6,0.4-1.1c0-0.5,0.5-1.6,1-2.5c0.5-0.9,1-2,1-2.5c0-0.5,0.3-1.5,0.6-2.1
		c0.3-0.7,0.9-2.5,1.2-4.1c0.3-1.6,0.7-3.6,1-4.5c0.6-2.2,0.6-166.4,0-169c-0.2-1-0.7-3.5-1-5.5s-0.8-4.2-1.2-4.9
		c-0.3-0.6-0.6-1.6-0.6-2.2c0-1.8-5.4-14-6.4-14.6c-0.2-0.1-0.5-0.7-0.8-1.2c-0.6-1.4-2.3-3.7-3-4.1c-0.3-0.2-0.6-0.5-0.6-0.8
		c0-0.3-1.8-2.2-3.9-4.2c-2.1-2-4.3-4-4.7-4.5c-0.5-0.4-1-0.8-1.3-0.8c-0.2,0-0.7-0.3-1-0.6c-0.7-0.7-2.6-1.9-4.9-3
		c-0.9-0.4-1.9-1-2.2-1.2c-1.7-1-4.9-2.4-5.5-2.4c-0.3,0-1.3-0.3-2.3-0.8c-0.9-0.4-2.6-0.9-3.7-1c-1.1-0.1-2.6-0.5-3.4-0.8
		c-7.3-3-72.1-3-75.6,0c-0.3,0.3-1.2,0.7-2,1c-3,0.9-10.7,9-10.8,11.2c0,0.3-0.4,1.1-0.8,1.8c-4.1,6.7-1.3,21.1,5.5,28.2
		c2.8,2.9,3.9,3.7,6.9,5c0.8,0.3,1.9,0.9,2.5,1.3c0.6,0.3,2.4,0.8,4,1c1.6,0.2,3,0.5,3.3,0.7c0.3,0.2,1.7,0.6,3.1,0.8
		c1.5,0.3,2.9,0.7,3.1,1c0.3,0.3,0.7,0.6,1.1,0.6c1.5,0,6.1,2.6,12.3,7c1.7,1.2,6.6,6.1,8,8c0.7,0.9,1.3,1.7,1.4,1.8
		c0.1,0.1,0.5,0.8,0.9,1.4c0.3,0.7,0.9,1.5,1.3,1.7c0.3,0.3,0.6,0.8,0.6,1.2s0.4,1.2,0.8,1.7c0.4,0.6,0.8,1.3,0.8,1.6
		c0,0.3,0.4,1.4,0.9,2.3c0.5,1,1,2.5,1.2,3.4c0.1,0.9,0.5,2.2,0.9,2.8c1.5,3,1.8,19.4,0.4,24c-0.3,1.1-0.8,2.8-1,3.7
		c-0.3,1-0.8,2.4-1.2,3.2c-0.4,0.8-0.8,2-1,2.7c-0.2,0.7-0.4,1.4-0.7,1.5c-0.2,0.1-0.7,0.9-1.1,1.7c-1.6,3.1-2.4,4.6-2.7,4.8
		c-0.2,0.1-1.1,1.3-2.1,2.6c-1.7,2.3-65,66-68.3,68.7c-0.9,0.7-2.1,1.7-2.7,2.1c-0.6,0.4-1.6,1.2-2.2,1.7c-0.6,0.5-1.3,0.9-1.5,0.9
		c-0.2,0-1,0.5-1.7,1c-0.7,0.6-1.6,1-1.9,1c-0.3,0-0.9,0.3-1.2,0.6c-0.7,0.7-4.2,1.9-8.2,3c-1.5,0.4-3.4,1-4.2,1.2
		c-2.6,0.8-16,0.5-18.9-0.3c-1.4-0.4-3.3-0.9-4.2-1c-0.9-0.1-2-0.5-2.4-0.8c-0.4-0.3-1-0.6-1.3-0.6c-1.1,0-7.3-3.4-10.8-5.8
		c-0.9-0.7-2.1-1.4-2.5-1.6c-1.5-0.9-65.5-65.8-68.6-69.6c-2.4-3-3.8-4.9-3.8-5.3c0-0.2-0.3-0.8-0.7-1.3c-0.4-0.5-0.9-1.4-1.1-2
		c-0.2-0.6-0.6-1.4-1.1-2c-0.4-0.5-0.7-1.2-0.7-1.6c0-0.4-0.3-1.3-0.7-2s-1-2.5-1.2-3.8c-0.3-1.3-0.7-2.6-0.9-2.9
		c-1.3-1.6-1.4-21.1-0.1-24.6c0.4-1,0.9-2.6,1.2-3.6c0.3-1,0.8-2.3,1.2-3c0.4-0.7,0.6-1.5,0.6-1.8c0-0.4,0.3-1.1,0.7-1.6
		c0.4-0.5,0.9-1.4,1.2-2c0.9-1.8,1.9-3.4,2.4-4c3.2-3.9,6.1-7,9.1-9.5c1.1-0.9,2.3-1.9,2.7-2.3c0.4-0.3,1-0.7,1.4-0.8
		c0.4-0.1,1.1-0.6,1.5-1c0.4-0.4,1-0.8,1.3-0.8s1.1-0.3,1.7-0.8c0.6-0.4,1.6-0.9,2.3-1.1c0.6-0.2,1.6-0.5,2.2-0.8
		c1.9-1,7.4-2.5,9.6-2.7c1.2-0.1,2.9-0.6,3.8-1c0.9-0.5,1.9-0.8,2.2-0.8c0.4,0,1.1-0.4,1.7-0.8c0.6-0.4,1.1-0.8,1.3-0.8
		c1,0,5.6-4.5,7.3-7c0.6-0.9,1.4-2.1,1.8-2.7c0.4-0.6,0.7-1.3,0.7-1.6c0-0.3,0.4-1.2,0.9-2.1c1.2-2.2,1.6-13.1,0.5-15.6
		c-0.4-0.9-0.9-2.4-1.2-3.5c-0.3-1-0.7-1.9-0.9-1.9c-0.2,0-0.5-0.6-0.8-1.4c-1.4-3.8-9.2-9.7-14.9-11.3
		C128.4,125,68.8,124.4,67,125.2"/>
	<path id="path4" class="st4" d="M191.5,0.6c-0.1,0.3-0.7,0.6-1.4,0.6c-0.7,0-1.5,0.3-1.9,0.7c-0.4,0.4-1.2,0.9-1.8,1
		c-0.6,0.1-1.3,0.6-1.5,1.1c-0.2,0.4-0.6,0.8-0.9,0.8c-0.5,0-3.1,2.8-3.1,3.3c0,0.2-0.3,0.3-0.6,0.3c-0.3,0-0.7,0.3-0.9,0.7
		c-0.1,0.4-0.7,1.2-1.2,1.8c-0.5,0.6-0.9,1.5-0.9,2c0,0.5-0.3,1.1-0.8,1.3c-0.5,0.3-0.8,1.2-1,2.8c-0.2,1.3-0.5,2.4-0.7,2.6
		c-1,0.6-1.1,9-1.1,109.1c0,57.8-0.2,104.4-0.2,103.7c-0.1-0.7-0.5-1.5-0.9-1.8c-0.4-0.3-0.9-1.1-1-1.8c-0.1-0.7-0.6-1.5-1-1.7
		s-0.7-0.7-0.7-1.2c0-0.4-0.5-1.3-1-1.9c-0.6-0.7-1-1.5-1-1.8c0-0.3-0.3-1-0.7-1.5c-0.4-0.5-0.9-1.3-1-1.8c-0.1-0.5-0.5-1-0.9-1.1
		c-0.3-0.1-0.6-0.6-0.6-1.1c0-0.5-0.4-1.2-0.9-1.7c-0.5-0.5-1-1.2-1.2-1.6c-0.1-0.4-0.5-0.7-0.8-0.7c-0.3,0-0.7-0.4-0.8-0.8
		c-0.1-0.4-0.6-0.9-1-1c-0.4-0.1-0.8-0.6-0.9-1c-0.1-0.4-0.5-0.8-0.8-0.8c-0.4,0-0.6-0.3-0.6-0.6c0-0.3-0.4-0.8-1-1s-1-0.7-1-1
		c0-0.3-0.2-0.6-0.3-0.6c-0.2,0-0.9-0.5-1.5-1.1c-2-1.8-3-2.5-4.1-2.8c-0.6-0.1-1.3-0.6-1.7-1c-0.4-0.4-1.3-0.7-2.1-0.7
		c-0.8,0-2.1-0.4-2.9-0.8c-2.2-1.2-9.3-1.2-10.8,0c-0.7,0.5-1.6,0.8-2.8,0.8c-1.2,0-2,0.2-2.5,0.8c-0.4,0.4-1,0.8-1.3,0.8
		c-0.7,0-4.4,2.6-5.5,3.9c-2.1,2.6-2.9,3.7-2.9,4.1c0,0.2-0.4,0.6-0.8,0.9s-0.8,0.7-0.8,1.1c0,0.4-0.4,1.3-1,2.1
		c-0.6,0.8-1,1.9-1,2.7c0,0.8-0.4,1.8-0.8,2.4c-1.2,1.5-1.2,10.7,0,12.2c0.5,0.6,0.8,1.6,0.8,2.4c0,0.9,0.3,1.8,1,2.6
		c0.6,0.7,1,1.4,1,1.8s0.5,1.1,1,1.7c0.5,0.6,1,1.3,1,1.4c0,0.4,11.1,11.5,11.5,11.5c0.2,0,0.5,0.4,0.8,1c0.3,0.6,0.7,1,1.1,1
		c0.3,0,0.6,0.2,0.6,0.4c0,0.5,13.1,13.6,13.5,13.6c0.2,0,0.5,0.5,0.8,1c0.3,0.6,0.7,1,1.1,1c0.3,0,0.6,0.2,0.6,0.4
		c0,0.5,13.1,13.6,13.5,13.6c0.2,0,0.5,0.5,0.8,1c0.3,0.6,0.7,1,1.1,1c0.3,0,0.6,0.2,0.6,0.4c0,0.5,13.1,13.6,13.5,13.6
		c0.2,0,0.5,0.5,0.8,1c0.3,0.6,0.7,1,1.1,1c0.3,0,0.6,0.2,0.6,0.4c0,0.4,2.6,3.2,3,3.2c0.1,0,0.6,0.4,1.2,0.9
		c1.8,1.6,3.4,2.7,3.9,2.7c0.3,0,0.9,0.3,1.3,0.8c0.4,0.4,1.4,0.9,2.4,1c0.9,0.1,2,0.6,2.4,0.9c1.4,1.3,10.9,1.2,13.6-0.1
		c1.2-0.6,2.6-1,3.2-1c0.5,0,1.3-0.4,1.7-0.8c0.4-0.4,0.9-0.8,1.1-0.8c0.6,0,4.3-2.5,4.3-2.9c0-0.2,0.4-0.5,1-0.8c0.6-0.3,1-0.7,1-1
		c0-0.3,0.4-0.7,0.8-0.8c0.4-0.1,0.8-0.3,0.8-0.5c0-0.5,2.7-3.2,3.2-3.2c0.2,0,0.4-0.2,0.4-0.4c0-0.5,4.3-4.8,4.8-4.8
		c0.2,0,0.5-0.4,0.6-0.8c0.1-0.4,0.6-0.9,1-1c0.4-0.1,0.8-0.5,0.8-0.9c0-0.3,0.4-0.7,0.8-0.8c0.4-0.1,0.9-0.5,1-0.9
		c0.1-0.4,0.6-0.8,1-1c0.4-0.1,0.8-0.6,0.9-1c0.1-0.4,0.5-0.8,0.8-0.8c0.4,0,0.6-0.1,0.6-0.3c0-0.5,2.7-3.3,3.2-3.3
		c0.2,0,0.4-0.2,0.4-0.4c0-0.5,4.3-4.8,4.8-4.8c0.2,0,0.5-0.4,0.6-0.8c0.1-0.4,0.6-0.9,1-1c0.4-0.1,0.8-0.6,0.9-1
		c0.1-0.4,0.5-0.8,0.8-0.8c0.3,0,0.7-0.4,0.9-0.8c0.1-0.4,0.6-0.9,1-1c0.4-0.1,0.8-0.6,0.9-1c0.1-0.4,0.5-0.8,0.8-0.8
		c0.4,0,0.6-0.1,0.6-0.3c0-0.5,2.7-3.3,3.2-3.3c0.2,0,0.4-0.2,0.4-0.4c0-0.5,4.3-4.8,4.8-4.8c0.2,0,0.5-0.4,0.6-0.8
		c0.1-0.4,0.6-0.9,1-1c0.4-0.1,0.8-0.6,0.9-1c0.1-0.4,0.5-0.8,0.8-0.8c0.3,0,0.7-0.4,0.9-0.8c0.1-0.4,0.6-0.9,1-1
		c0.4-0.1,0.8-0.6,0.9-1c0.1-0.4,0.5-0.8,0.8-0.8c0.4,0,0.6-0.1,0.6-0.3c0-0.5,2.7-3.3,3.2-3.3c0.2,0,0.4-0.2,0.4-0.4
		c0-0.5,4.3-4.8,4.8-4.8c0.2,0,0.5-0.4,0.6-0.8c0.1-0.4,0.6-0.9,1-1c0.4-0.1,0.8-0.6,0.9-1c0.1-0.4,0.5-0.8,0.8-0.8
		c0.4,0,0.6-0.2,0.6-0.3c0-0.2,0.5-0.9,1.1-1.6c1.9-2.2,2.9-3.6,2.9-4.2c0-0.4,0.4-1,0.8-1.4c0.4-0.4,0.8-1.2,0.8-1.7
		c0-0.5,0.4-1.6,0.9-2.5c1.2-2.2,1.3-11.7,0.2-13.6c-0.4-0.7-0.9-1.9-1.1-2.9c-0.2-0.9-0.7-1.9-1-2.1c-0.3-0.3-0.6-0.8-0.6-1.2
		c0-0.4-0.3-1-0.7-1.3c-0.4-0.3-0.9-0.9-1-1.4c-0.3-1.1-4.2-5-5.7-5.8c-0.6-0.3-1.3-0.8-1.4-1.1c-0.2-0.3-0.9-0.6-1.6-0.7
		c-0.7-0.2-1.6-0.6-2-1c-0.5-0.5-1.3-0.8-2.4-0.8c-1,0-2.2-0.3-2.9-0.8c-1.7-1.1-7-1.1-9.5,0c-1,0.4-2.4,0.8-3.2,0.8
		c-0.9,0-1.8,0.3-2.3,0.8c-0.4,0.4-1.3,0.9-2,1c-0.7,0.1-1.4,0.5-1.7,0.9c-0.3,0.3-0.9,0.8-1.4,1c-0.5,0.2-0.9,0.6-0.9,1
		c0,0.3-0.2,0.6-0.4,0.6c-0.6,0-4.8,4.2-4.8,4.8c0,0.2-0.3,0.4-0.6,0.4c-0.3,0-0.8,0.4-1.1,1c-0.3,0.6-0.7,1-1,1
		c-0.3,0-0.7,0.3-0.8,0.7c-0.1,0.4-0.6,0.9-1,1.2c-0.4,0.3-0.7,0.8-0.7,1c0,0.3-0.3,1-0.7,1.5c-0.4,0.5-0.9,1.4-1,1.9
		c-0.2,0.5-0.6,1.3-1.1,1.7c-0.4,0.4-0.8,1.2-0.8,1.7c0,0.5-0.3,1.1-0.8,1.4c-0.4,0.3-0.9,1-1,1.6c-0.2,0.6-0.6,1.4-1.1,1.8
		c-0.4,0.4-0.8,1.1-0.8,1.5s-0.3,1.1-0.7,1.5c-0.4,0.4-0.9,1.3-1.1,1.9c-0.2,0.7-0.4-41.8-0.6-104.8c-0.2-96.1-0.3-106.1-0.8-107
		c-0.4-0.5-0.8-2-0.9-3.1c-0.2-1.3-0.6-2.5-1.1-3c-0.4-0.5-0.8-1.1-0.8-1.5s-0.4-0.9-0.8-1.3c-0.4-0.4-0.8-1-0.8-1.2
		c0-0.5-4.5-5.4-4.9-5.4c-0.1,0-0.7-0.5-1.2-1s-1.3-1-1.6-1s-1-0.4-1.4-0.8c-0.4-0.4-1.3-0.8-2-0.8c-0.7,0-1.3-0.2-1.4-0.6
		c-0.3-0.7-1.9-0.8-1.6-0.1c0.1,0.3,0.7,0.7,1.3,0.8c4.5,1.3,10.7,6,12.7,9.6c4.9,9,4.4-3.8,4.7,117.9c0.2,97,0.3,105.4,0.9,105.5
		c0.5,0.1,0.7-0.3,0.9-1.2c0.1-0.8,0.6-1.7,1-2.1c0.4-0.4,0.8-1,0.8-1.4c0-0.4,0.2-0.8,0.4-0.9c0.4-0.2,4-6.7,6.5-11.4
		c2-3.8,12.3-13.7,15.2-14.6c0.5-0.2,1.5-0.6,2.1-1c0.7-0.4,2.3-0.8,3.6-1c1.3-0.2,3.1-0.4,3.9-0.6c1.9-0.5,10,0.8,11.1,1.8
		c0.4,0.4,1.1,0.7,1.6,0.7s1.4,0.5,2,1c0.7,0.6,1.3,1,1.5,1c0.2,0,0.6,0.3,1,0.7c0.4,0.4,1.5,1.5,2.5,2.5c1,1,2.1,2.3,2.5,2.9
		c0.3,0.6,0.7,1.1,0.9,1.1c0.2,0,0.6,0.7,0.8,1.5c0.3,0.8,0.7,1.8,1,2.1c0.3,0.3,0.6,1.1,0.7,1.8c0.1,0.7,0.5,2.3,0.9,3.7
		c1,3.6,0.2,11.4-1.4,14.1c-0.2,0.3-0.6,1.2-0.9,1.9c-1.3,2.9-5.2,7-35.5,37.3c-28.1,28.1-35.9,35.6-37,35.6c-0.2,0-1.2,0.5-2.3,1
		c-1.1,0.5-2.3,1-2.8,1c-0.5,0-1.3,0.3-1.8,0.6c-1.4,0.8-9.1,0.8-11.1,0c-0.8-0.3-1.7-0.6-2.1-0.6c-0.9,0-4.5-1.9-7.1-3.6
		c-2.3-1.5-63.6-62.5-66.6-66.2c-1.1-1.3-2.2-2.7-2.5-3.1c-0.3-0.4-0.7-1.1-0.9-1.6c-0.2-0.5-0.6-1.4-0.9-1.9
		c-1.4-2.1-2.7-13.4-1.7-14.6c0.2-0.3,0.5-1.3,0.7-2.3c0.2-1,0.7-2.6,1.2-3.6c0.5-1,0.9-1.9,0.9-2.1c0-0.2,0.8-1.3,1.8-2.5
		c1-1.2,1.8-2.4,1.8-2.6c0-1.8,7.3-6,12-7c7.2-1.5,12.4-0.6,20,3.6c1.8,1,11.8,11.1,12.7,12.9c0.5,0.9,1.2,2.3,1.7,3.2
		c0.5,0.9,1.3,2.3,1.8,3.2c0.5,0.9,1.3,2.1,1.6,2.8c0.4,0.7,1.2,2.1,1.8,3.2c0.6,1.1,1.5,2.7,1.8,3.5c0.5,1.2,1.4,1.9,1.8,1.4
		c0.1-0.1,0.2-48,0.3-106.5c0.2-112,0.2-109.5,2-112.4c0.4-0.7,0.8-1.5,0.8-1.8c0-0.3,0.4-1,0.8-1.4c0.4-0.5,0.8-1,0.8-1.3
		c0-1.5,9.6-9.2,11.5-9.2c1.3,0,2.5-0.5,2.5-1C193.2-0.2,191.7-0.2,191.5,0.6 M64.9,124.5c-0.9,0.2-1.7,0.5-1.7,0.7
		c0,0.2-1.6,0.4-3.5,0.5c-2.4,0.1-3.9,0.4-4.6,0.9c-0.6,0.4-1.9,0.8-3,0.9c-1,0.1-2.3,0.6-2.9,1c-0.5,0.4-1.4,0.7-1.8,0.7
		c-0.5,0-1.4,0.4-1.9,0.8c-0.6,0.4-1.3,0.8-1.6,0.8c-0.3,0-1.2,0.4-1.9,1s-1.7,1-2.1,1c-0.4,0-0.9,0.3-1,0.8c-0.1,0.5-0.7,0.9-1.4,1
		c-0.6,0.1-1.2,0.4-1.2,0.6s-0.6,0.6-1.4,1.1c-0.8,0.4-1.4,1-1.4,1.3s-0.2,0.5-0.4,0.5c-0.2,0-2,1.6-3.8,3.5c-4.9,5.1-5,5.1-5,5.6
		c0,0.2-0.4,0.9-1,1.5c-0.5,0.6-1,1.3-1,1.7c0,0.3-0.2,0.6-0.4,0.6c-0.2,0-0.7,0.7-1,1.5c-0.3,0.8-0.8,1.8-1.1,2.1
		c-0.3,0.3-0.6,1.1-0.8,1.7c-0.1,0.6-0.6,1.5-1.1,1.9c-0.4,0.4-0.8,1.3-0.8,2c0,0.7-0.3,1.5-0.7,1.9c-0.4,0.4-0.8,1.6-1,2.9
		c-0.1,1.2-0.6,2.5-1,2.9c-0.5,0.6-0.7,1.6-0.9,3.7c-0.1,1.6-0.3,3-0.5,3c-1.3,0-1.3,2.2-1.5,84.6c-0.1,82.4,0,92.3,1.2,93.7
		c0.4,0.4,0.7,1.7,0.8,3.2c0.1,1.6,0.4,2.8,0.8,3.2c0.4,0.4,0.8,1.6,0.9,2.6c0.2,1.2,0.5,2.1,1,2.4c0.4,0.3,0.7,0.9,0.7,1.5
		c0,0.6,0.4,1.6,1,2.3c0.5,0.7,1,1.5,1,1.8c0,0.3,0.4,1,0.8,1.6c0.4,0.6,0.8,1.2,0.8,1.5c0,0.2,0.4,0.7,0.8,0.9s0.8,0.7,0.8,1
		c0,0.3,0.5,1,1,1.7c0.6,0.7,1,1.4,1,1.6c0,0.2,0.5,0.7,1,1.1c0.6,0.4,1,0.9,1,1.2c0,0.3,0.3,0.6,0.6,0.6c0.3,0,0.8,0.5,1,1
		c0.2,0.6,0.6,1,1,1c0.3,0,0.7,0.4,0.8,0.8c0.1,0.4,0.5,0.8,0.9,0.8c0.3,0,0.7,0.4,0.8,0.8c0.1,0.4,0.4,0.8,0.6,0.8
		c0.2,0,0.7,0.3,1.1,0.7c1.2,1.2,4.2,3.3,4.7,3.3c0.3,0,0.6,0.3,0.7,0.6s0.8,0.8,1.5,1.1c0.7,0.3,1.6,0.8,1.9,1.2
		c0.3,0.4,1,0.7,1.5,0.7c0.5,0,1,0.3,1.1,0.6c0.1,0.3,1,0.8,2,1c1,0.3,1.8,0.6,1.8,0.8c0,0.4,2.2,1.2,3.3,1.2c0.4,0,1.2,0.4,1.8,0.8
		c0.7,0.5,1.6,0.8,2.9,0.8c1.2,0,2.2,0.2,2.5,0.6c0.7,0.7,3.2,0.8,3,0.1c-0.1-0.3-1.5-0.7-3.3-0.9c-1.7-0.2-3.6-0.7-4.2-1.1
		c-0.6-0.4-1.7-0.8-2.6-0.9c-0.9-0.2-1.9-0.5-2.2-0.8c-0.3-0.3-1.4-0.7-2.3-1c-0.9-0.2-1.7-0.6-1.8-0.7c-0.1-0.2-0.8-0.7-1.7-1.1
		c-3.4-1.7-4.1-2.2-4.6-2.8c-0.3-0.3-0.7-0.6-0.9-0.6c-1.5,0-11.8-9.9-14.4-13.8c-0.9-1.4-1.9-2.6-2-2.6s-0.5-0.6-0.8-1.4
		c-0.3-0.8-0.6-1.4-0.8-1.4c-0.2,0-0.6-0.6-0.8-1.3s-0.8-1.8-1.2-2.3c-0.4-0.5-0.8-1.5-1-2.2s-0.5-1.5-0.8-1.8
		c-0.3-0.3-0.6-1.3-0.8-2.2c-0.2-0.9-0.5-2.1-0.8-2.6c-0.3-0.6-0.7-2.2-1-3.6c-0.3-1.4-0.7-3.6-1-4.8c-0.8-3.2-0.8-167.4,0-171
		c0.3-1.3,0.8-3.8,1-5.6c0.3-1.8,0.7-3.5,0.9-4c0.2-0.4,0.7-1.8,1-3.1c0.3-1.3,0.8-2.8,1.1-3.2c0.3-0.5,0.6-1.2,0.6-1.6
		c0-0.4,0.4-1.4,0.8-2.2c0.4-0.8,1-1.9,1.2-2.5c0.2-0.5,0.9-1.7,1.4-2.6c0.5-0.9,1.3-2.1,1.6-2.8c2.2-3.9,8.5-11,12-13.4
		c0.8-0.6,2.3-1.7,3.4-2.5c1.1-0.8,2.5-1.8,3.3-2.1c0.7-0.3,2.5-1.2,3.9-2c1.4-0.8,2.8-1.4,3.1-1.4s1.3-0.3,2.1-0.8
		c0.8-0.4,2.2-0.9,3.1-1c0.9-0.1,2.3-0.5,3.2-0.8c6-2.1,67.8-3.1,74.6-1.2c5.7,1.6,13.5,7.5,14.9,11.3c0.3,0.8,0.6,1.4,0.8,1.4
		c0.2,0,0.6,0.9,0.9,1.9c0.3,1,0.9,2.6,1.2,3.5c1.1,2.5,0.7,13.4-0.5,15.6c-0.5,0.9-0.9,1.8-0.9,2.1c0,0.3-0.3,1-0.7,1.6
		c-0.4,0.6-1.2,1.8-1.8,2.7c-1.7,2.5-6.3,7-7.3,7c-0.2,0-0.7,0.4-1.3,0.8c-0.6,0.4-1.3,0.8-1.7,0.8c-0.4,0-1.4,0.4-2.2,0.8
		c-0.9,0.5-2.6,0.9-3.8,1c-2.2,0.2-7.7,1.8-9.6,2.7c-0.5,0.3-1.5,0.6-2.2,0.8c-0.6,0.2-1.7,0.6-2.3,1.1c-0.6,0.4-1.3,0.8-1.7,0.8
		s-0.9,0.4-1.3,0.8c-0.4,0.4-1.1,0.9-1.5,1c-0.4,0.1-1.1,0.5-1.4,0.8c-0.4,0.3-1.6,1.3-2.7,2.3c-3,2.5-5.9,5.6-9.1,9.5
		c-0.5,0.6-1.4,2.2-2.4,4c-0.3,0.6-0.8,1.4-1.2,2c-0.4,0.5-0.7,1.2-0.7,1.6c0,0.4-0.3,1.2-0.6,1.8c-0.4,0.7-0.9,2-1.2,3
		c-0.3,1-0.8,2.6-1.2,3.6c-1.3,3.5-1.2,23,0.1,24.6c0.2,0.3,0.6,1.6,0.9,2.9c0.3,1.3,0.8,3,1.2,3.8s0.7,1.7,0.7,2
		c0,0.4,0.3,1.1,0.7,1.6c0.4,0.5,0.9,1.4,1.1,2c0.2,0.6,0.6,1.4,1.1,2c0.4,0.5,0.7,1.1,0.7,1.3c0,0.5,1.3,2.3,3.8,5.3
		c3,3.7,67.1,68.7,68.6,69.6c0.4,0.2,1.5,1,2.5,1.6c3.5,2.4,9.7,5.8,10.8,5.8c0.3,0,0.9,0.3,1.3,0.6c0.4,0.3,1.5,0.7,2.4,0.8
		c0.9,0.1,2.8,0.6,4.2,1c2.9,0.9,16.3,1.1,18.9,0.3c0.8-0.2,2.7-0.8,4.2-1.2c4-1.1,7.5-2.4,8.2-3c0.3-0.3,0.9-0.6,1.2-0.6
		c0.3,0,1.2-0.4,1.9-1c0.7-0.5,1.5-1,1.7-1c0.2,0,0.9-0.4,1.5-0.9c0.6-0.5,1.6-1.3,2.2-1.7c0.6-0.4,1.8-1.4,2.7-2.1
		c3.2-2.7,66.5-66.4,68.3-68.7c1-1.3,1.9-2.5,2.1-2.6c0.3-0.2,1.2-1.8,2.7-4.8c0.4-0.8,0.9-1.6,1.1-1.7c0.2-0.1,0.5-0.8,0.7-1.5
		c0.2-0.7,0.6-1.9,1-2.7c0.4-0.8,0.9-2.2,1.2-3.2c0.3-1,0.7-2.7,1-3.7c1.3-4.6,1-21.1-0.4-24c-0.3-0.7-0.7-1.9-0.9-2.8
		c-0.1-0.9-0.7-2.4-1.2-3.4c-0.5-1-0.9-2-0.9-2.3c0-0.3-0.4-1-0.8-1.6c-0.4-0.6-0.8-1.3-0.8-1.7s-0.3-0.9-0.6-1.2
		c-0.3-0.3-0.9-1.1-1.3-1.7c-0.3-0.7-0.7-1.3-0.9-1.4c-0.1-0.1-0.8-0.9-1.4-1.8c-1.4-1.9-6.4-6.8-8-8c-6.1-4.3-10.8-7-12.3-7
		c-0.3,0-0.8-0.3-1.1-0.6c-0.3-0.3-1.7-0.8-3.1-1c-1.5-0.3-2.9-0.6-3.1-0.8c-0.2-0.2-1.7-0.5-3.3-0.7c-1.6-0.2-3.3-0.6-4-1
		c-0.6-0.3-1.8-0.9-2.5-1.3c-3-1.3-4-2.1-6.9-5c-3.5-3.6-4.2-4.7-6.1-9.9c-1.5-4-1.1-15.5,0.6-18.3c0.4-0.7,0.8-1.5,0.8-1.8
		c0-2.2,7.8-10.3,10.8-11.2c0.8-0.3,1.7-0.7,2-1c3.5-3,68.3-3,75.6,0c0.8,0.3,2.3,0.7,3.4,0.8c1.1,0.1,2.8,0.6,3.7,1
		c0.9,0.4,1.9,0.8,2.3,0.8c0.5,0,3.8,1.4,5.5,2.4c0.3,0.2,1.3,0.7,2.2,1.2c2.2,1.1,4.2,2.3,4.9,3c0.3,0.3,0.8,0.6,1,0.6
		c0.2,0,0.8,0.4,1.3,0.8c0.5,0.4,2.6,2.5,4.7,4.5c2.1,2,3.9,3.9,3.9,4.2c0,0.3,0.3,0.6,0.6,0.8c0.7,0.4,2.4,2.8,3,4.1
		c0.2,0.5,0.6,1.1,0.8,1.2c1.1,0.7,6.4,12.9,6.4,14.6c0,0.6,0.3,1.5,0.6,2.2c0.3,0.6,0.9,2.8,1.2,4.9s0.8,4.5,1,5.5
		c0.6,2.6,0.6,166.8,0,169c-0.2,0.9-0.7,2.9-1,4.5c-0.3,1.6-0.8,3.4-1.2,4.1c-0.3,0.7-0.6,1.6-0.6,2.1c0,0.5-0.4,1.6-1,2.5
		c-0.5,0.9-1,2-1,2.5c0,0.5-0.2,1-0.4,1.1c-0.2,0.1-1.1,1.7-2,3.5c-0.9,1.8-1.9,3.5-2.2,3.8c-0.3,0.3-0.6,0.8-0.6,1
		c0,0.3-0.3,0.8-0.8,1.3c-2.1,2.2-2.8,3.1-2.8,3.3c0,0.2-0.3,0.6-0.7,0.9c-0.4,0.3-1.3,1.2-1.9,2c-1.4,1.6-4.1,4.1-6,5.6
		c-4.6,3.7-11.8,8-13.4,8c-0.4,0-1.2,0.4-1.7,0.8c-0.6,0.4-1.8,1-2.8,1.1c-1,0.2-2.1,0.6-2.5,0.9c-0.4,0.3-2.1,0.7-3.9,1
		c-1.9,0.2-3.3,0.6-3.4,0.9c-0.2,0.7,2.6,0.6,3.4-0.1c0.3-0.4,1.3-0.6,2.3-0.6c1.1,0,2-0.2,2.4-0.7c0.4-0.4,1.5-0.8,2.5-1
		c1-0.2,2.1-0.6,2.5-1c0.4-0.3,1.3-0.7,2.2-0.9c0.8-0.1,1.7-0.6,1.9-1c0.3-0.4,0.9-0.7,1.5-0.7c0.6,0,1.4-0.4,1.9-1
		c0.5-0.6,1.2-1,1.6-1c0.4,0,1.1-0.4,1.5-0.8c0.4-0.4,1.1-0.9,1.5-1c0.4-0.1,0.7-0.5,0.7-0.8s0.2-0.6,0.5-0.6c0.3,0,1-0.4,1.6-0.9
		c0.6-0.5,1.6-1.4,2.3-1.9c1.9-1.5,4.1-3.7,5.4-5.4c0.7-0.8,1.5-1.9,1.9-2.2c0.4-0.4,0.7-1,0.7-1.4c0-0.4,0.4-0.7,0.8-0.8
		c0.4-0.1,0.9-0.6,1.1-1.1c0.1-0.5,0.6-1.1,1-1.4c0.4-0.3,0.7-0.8,0.7-1.2c0-0.4,0.4-1.2,1-1.8c0.5-0.6,1-1.5,1-2.1
		c0-0.5,0.3-1.1,0.6-1.2c0.3-0.1,0.8-1,1-1.9c0.2-0.9,0.7-2,1-2.3c0.3-0.4,0.7-1.3,0.8-2.2c0.1-0.9,0.6-2,1-2.5
		c0.5-0.6,0.7-1.6,0.7-2.9c0-1.3,0.3-2.4,0.9-3.4l0.9-1.5l0.1-83.6c0.1-82.4,0-89.4-1.2-90.9c-0.3-0.3-0.6-2-0.8-3.8
		c-0.2-1.9-0.5-3.5-0.9-3.9c-0.3-0.4-0.7-1.7-0.9-3c-0.2-1.3-0.5-2.5-0.9-2.8c-0.3-0.3-0.7-1.2-0.8-2.1c-0.1-0.9-0.6-1.8-1-2
		c-0.4-0.3-0.7-0.9-0.7-1.6c0-0.7-0.4-1.5-1-2.1c-0.6-0.5-1-1.2-1-1.6s-0.4-1-0.8-1.5c-0.4-0.4-0.8-1-0.8-1.3c0-0.3-0.5-0.9-1-1.4
		c-0.6-0.5-1-1.1-1-1.5c0-0.3-0.2-0.6-0.6-0.6c-0.3,0-0.8-0.5-1-1.2c-0.6-1.5-6-6.9-7.6-7.5c-0.6-0.3-1.3-0.8-1.4-1.1
		c-0.1-0.3-0.5-0.6-0.8-0.6c-0.3,0-0.8-0.4-1-0.8c-0.2-0.4-0.7-0.8-1-0.8c-0.3,0-1.1-0.4-1.7-1c-0.7-0.6-1.4-1-1.8-1
		s-0.9-0.4-1.3-0.8c-0.4-0.4-1.3-0.9-2-1.1c-0.7-0.2-1.7-0.6-2.2-1s-1.4-0.7-2-0.7c-0.5,0-1.6-0.3-2.2-0.7c-0.7-0.4-2.2-0.9-3.3-1
		c-1.1-0.1-2.6-0.5-3.2-0.9c-0.8-0.5-2.1-0.8-4.7-0.9c-2.4-0.1-4-0.4-4.6-0.8c-2.2-1.5-64-1.1-64,0.4c0,0.2-0.8,0.4-1.8,0.4
		c-1.2,0-2,0.2-2.6,0.8c-0.4,0.4-1.4,0.9-2.2,1s-1.5,0.5-1.6,0.8c-0.1,0.3-0.7,0.7-1.2,1c-0.6,0.2-1,0.7-1,1c0,0.3-0.3,0.6-0.6,0.6
		c-0.3,0-1.1,0.7-1.8,1.5c-0.7,0.8-1.6,1.9-2,2.3c-0.4,0.4-0.8,1-0.8,1.3c0,0.3-0.3,0.6-0.6,0.7c-0.3,0.1-0.8,0.9-1.1,1.7
		c-0.3,0.8-0.7,1.8-1,2.1c-0.3,0.4-0.7,1.6-0.8,2.8c-0.1,1.2-0.4,2.4-0.7,2.7c-0.7,0.9-0.9,7.9-0.2,9c0.3,0.5,0.7,2,0.8,3.4
		c0.1,1.7,0.5,2.8,1.1,3.6c0.5,0.6,0.8,1.4,0.8,1.8c0,0.4,0.4,1.1,0.8,1.5s0.8,1,0.8,1.2c0,0.2,0.4,0.7,1,1c0.5,0.3,1.1,1,1.2,1.4
		c0.1,0.4,0.5,0.8,0.8,0.8c0.4,0,0.6,0.3,0.6,0.6c0,0.3,0.3,0.7,0.7,0.9c0.4,0.1,1.1,0.6,1.6,1.1c1.7,1.6,3.3,2.6,4.1,2.6
		c0.4,0,1.1,0.3,1.4,0.6c0.8,0.8,2.8,1.4,4.9,1.4c0.9,0,1.7,0.2,1.7,0.3c0,0.6,2,1.3,3.8,1.3c1.1,0,2.5,0.4,3.6,1c1,0.6,2.1,1,2.5,1
		c0.3,0,1,0.4,1.6,0.8c0.6,0.4,1.3,0.8,1.7,0.8s1,0.4,1.4,0.8c0.4,0.4,1,0.8,1.4,0.8c0.4,0,1.2,0.4,1.7,0.9c0.6,0.5,1.5,1.3,2.1,1.8
		c0.6,0.5,1.5,1,2,1.1c0.5,0.1,0.9,0.5,0.9,0.8c0,0.3,0.5,0.7,1,0.8c0.6,0.1,1,0.5,1,0.8s0.4,0.7,0.8,0.8c0.4,0.1,0.8,0.5,0.8,0.8
		c0,0.3,0.4,0.8,0.8,1.1c0.4,0.3,0.8,0.7,0.8,0.9c0,0.3,0.5,1,3.2,4.2c0.4,0.5,0.8,1.2,0.8,1.4c0,0.2,0.4,0.8,0.8,1.1s0.8,1,0.8,1.4
		c0,0.4,0.4,1.2,0.8,1.7s1,1.8,1.2,2.7s0.6,1.8,0.9,2c0.3,0.2,0.6,1.4,0.8,2.8c0.2,1.4,0.7,2.9,1,3.3c1.1,1.2,1,21.1,0,22.7
		c-0.4,0.6-0.9,2.1-1.1,3.3c-0.2,1.2-0.6,2.5-1,2.9c-0.3,0.3-0.6,1.1-0.6,1.8c0,0.7-0.3,1.5-0.8,1.9c-0.4,0.4-0.9,1.3-1,2
		c-0.1,0.7-0.6,1.5-0.9,1.7c-0.4,0.2-0.8,0.9-1,1.7c-0.1,0.7-0.6,1.5-1.1,1.8c-0.4,0.3-0.8,0.8-0.8,1.1c0,0.3-0.3,0.6-0.6,0.6
		s-0.7,0.4-0.8,0.9c-0.4,1.2-69.4,70.3-70.3,70.3c-0.4,0-0.8,0.4-0.9,0.8s-0.6,0.8-1,0.8c-0.4,0-1,0.4-1.4,0.8
		c-0.4,0.4-1,0.8-1.3,0.8c-0.3,0-0.9,0.4-1.3,0.8c-0.4,0.4-1.5,1-2.4,1.2c-0.9,0.2-1.7,0.7-1.9,1c-0.2,0.3-1.1,0.6-2.1,0.8
		c-1,0.1-2,0.5-2.3,0.9c-0.3,0.4-1.3,0.7-2.8,0.9c-1.3,0.1-3.4,0.6-4.6,1c-3.3,1.1-12.6,1.1-15.8,0c-1.3-0.4-3.3-0.9-4.6-1
		c-1.5-0.1-2.7-0.5-3.4-1c-0.6-0.5-1.6-0.8-2.5-0.8c-1,0-1.6-0.2-1.9-0.8c-0.3-0.4-0.9-0.8-1.4-0.8c-0.5,0-1.4-0.5-2-1
		c-0.6-0.5-1.5-1-2-1c-0.6,0-1-0.3-1.1-0.8c-0.1-0.5-0.5-0.8-1-0.8c-0.5,0-0.8-0.2-0.8-0.4c0-0.2-0.7-0.8-1.5-1.3
		c-0.8-0.5-2.1-1.6-2.9-2.4s-1.6-1.4-1.9-1.5c-0.3,0-0.5-0.2-0.5-0.5c0-0.6-2.6-3.1-3.2-3.1c-0.2,0-0.4-0.2-0.4-0.4
		c0-0.2-1.7-2.1-3.7-4.1c-2-2-7.8-7.9-12.7-13c-4.9-5.1-15-15.3-22.3-22.7c-7.3-7.4-13.3-13.6-13.3-13.8c0-0.2-0.4-0.4-0.8-0.6
		c-0.4-0.1-0.9-0.6-1-1c-0.1-0.4-0.5-0.8-0.9-0.8c-0.3,0-0.7-0.4-0.8-0.8c-0.1-0.4-0.4-0.8-0.5-0.8c-0.4,0-0.9-0.5-3-3
		c-0.9-1.1-2-2.3-2.5-2.8c-0.5-0.5-0.9-1.2-0.9-1.5s-0.4-0.9-0.8-1.3c-0.4-0.4-0.8-0.9-0.8-1.2s-0.5-1.1-1-1.8c-0.6-0.7-1-1.6-1-2
		c0-0.4-0.4-1-0.8-1.5s-0.8-1.3-0.8-1.9c0-1.1-0.6-2.6-1.2-3c-0.2-0.1-0.4-1.3-0.6-2.6c-0.1-1.3-0.6-2.9-1-3.5
		c-1.2-1.6-1.2-20.6,0-22.3c0.4-0.6,0.8-1.9,1-3c0.1-1.1,0.5-2.2,0.9-2.7c0.4-0.4,0.8-1.4,0.9-2.3c0.1-0.9,0.6-1.9,0.9-2.2
		c0.4-0.4,0.8-1.2,1-1.9c0.1-0.7,0.4-1.2,0.7-1.2s0.7-0.6,1-1.4c0.3-0.8,0.9-1.5,1.2-1.6c0.3-0.1,0.6-0.6,0.6-1
		c0-0.4,0.3-0.9,0.8-1.2c0.4-0.2,0.9-0.8,1-1.2c0.1-0.4,0.5-0.8,0.8-0.8s0.7-0.4,0.8-0.8c0.1-0.4,0.6-0.9,1-1c0.4-0.1,0.8-0.6,0.9-1
		c0.1-0.4,0.5-0.8,0.8-0.8c0.3,0,0.7-0.4,0.9-0.8s0.5-0.8,0.8-0.8c0.3,0,0.8-0.4,1-0.8c0.2-0.4,0.7-0.8,1-0.8c0.3,0,1.1-0.5,1.7-1
		c0.6-0.6,1.3-1,1.6-1c0.3,0,0.7-0.4,1-0.8c0.3-0.4,0.9-0.8,1.4-0.8c0.5,0,1.2-0.3,1.6-0.7c0.4-0.4,1.4-0.8,2.3-1
		c0.9-0.1,2-0.6,2.6-1.1c0.6-0.5,1.7-0.8,2.6-0.8c0.8,0,2.1-0.3,2.7-0.7c0.7-0.4,2.4-0.8,4.2-1c2.4-0.2,3.1-0.4,3.5-1.1
		c0.4-0.6,1-0.8,1.9-0.8c0.8,0,1.5-0.3,1.9-0.7c0.3-0.4,1-0.9,1.6-1.2c2.3-1,7.5-6.4,7.5-7.7c0-0.3,0.5-1,1-1.7c0.6-0.7,1-1.6,1-2
		c0-0.5,0.3-1.2,0.7-1.6c1-1.1,1.1-17.3,0.1-18c-0.3-0.3-0.7-1.2-0.9-2c-0.1-0.9-0.6-1.9-1.1-2.4c-0.4-0.5-0.8-1.2-0.8-1.5
		s-0.3-0.8-0.8-1.1c-0.4-0.2-0.9-0.8-1-1.2c-0.1-0.4-0.5-0.8-0.7-0.8s-1.2-0.8-2-1.8c-0.9-1-1.8-1.8-2-1.8c-0.2,0-0.6-0.3-0.9-0.7
		c-0.3-0.4-1-0.9-1.7-1c-0.7-0.1-1.6-0.6-2-1.1c-0.5-0.5-1.3-0.8-2.3-0.8c-0.8,0-1.8-0.3-2.2-0.7C129.8,124.1,68.4,123.7,64.9,124.5
		"/>
</g>
</svg>
