<svg xmlns="http://www.w3.org/2000/svg" viewBox="0 0 40 40">
<title>Asset 10</title><g id="Layer_2" data-name="Layer 2"><g id="Layer_1-2" data-name="Layer 1">
<style type="text/css">
	.st0{fill:none;}
	.st2{fill:#68a4eb;}
	.st1{fill:#FFFFFF;}
	
</style>
<path  d="M22.86,38V35.57a15.42,15.42,0,0,0,6-2.71l1.89,1.89a2,2,0,0,0,2.84,0l1.2-1.2a2,2,0,0,0,0-2.84l-2-2a15.39,15.39,0,0,0,2.18-5.81H38a2,2,0,0,0,2-2v-1.7a2,2,0,0,0-2-2H34.75a15.42,15.42,0,0,0-2.36-5.49L34.74,9.3a2,2,0,0,0,0-2.84l-1.2-1.2a2,2,0,0,0-2.84,0L28.35,7.61a15.42,15.42,0,0,0-5.49-2.36V2a2,2,0,0,0-2-2h-1.7a2,2,0,0,0-2,2v3.1a15.39,15.39,0,0,0-5.81,2.18l-2-2a2,2,0,0,0-2.84,0l-1.2,1.2a2,2,0,0,0,0,2.84l1.89,1.89a15.42,15.42,0,0,0-2.71,6H2a2,2,0,0,0-2,2v1.7a2,2,0,0,0,2,2H4.29a15.41,15.41,0,0,0,2.5,6.31L5.26,30.7a2,2,0,0,0,0,2.84l1.2,1.2a2,2,0,0,0,2.84,0l1.54-1.54a15.41,15.41,0,0,0,6.31,2.5V38a2,2,0,0,0,2,2h1.7A2,2,0,0,0,22.86,38ZM27,20.41A7.39,7.39,0,1,1,19.59,13,7.39,7.39,0,0,1,27,20.41Z"/></g></g></svg>